<svg width="1243" height="304" viewBox="0 0 1243 304" fill="none" xmlns="http://www.w3.org/2000/svg">
<g filter="url(#filter0_di_1_110)">
<path d="M148.757 8.37437C150.514 6.61701 153.363 6.61701 155.121 8.37436L287.503 140.757C289.26 142.514 289.26 145.363 287.503 147.121L155.121 279.503C153.363 281.26 150.514 281.26 148.757 279.503L16.3744 147.121C14.617 145.363 14.617 142.514 16.3744 140.757L148.757 8.37437Z" stroke="#39BFA7" stroke-width="13" shape-rendering="crispEdges"/>
</g>
<g filter="url(#filter1_di_1_110)">
<path fill-rule="evenodd" clip-rule="evenodd" d="M279.766 151.419C283.671 147.513 283.671 141.182 279.766 137.276L159.419 16.9289C155.513 13.0237 149.182 13.0237 145.276 16.9289L24.9289 137.276C21.0237 141.182 21.0237 147.513 24.9289 151.419L145.276 271.766C149.182 275.671 155.513 275.671 159.419 271.766L279.766 151.419ZM157.455 28.8547C154.331 25.7305 149.265 25.7305 146.141 28.8547L114.6 60.3961C111.475 63.5203 111.475 68.5856 114.6 71.7098L146.141 103.251C149.265 106.375 154.331 106.375 157.455 103.251L188.996 71.7098C192.12 68.5856 192.12 63.5203 188.996 60.3961L157.455 28.8547ZM148.97 31.6831C150.532 30.121 153.064 30.121 154.626 31.6831L186.168 63.2245C187.73 64.7866 187.73 67.3193 186.168 68.8814L154.626 100.423C153.064 101.985 150.532 101.985 148.97 100.423L117.428 68.8814C115.866 67.3193 115.866 64.7866 117.428 63.2245L148.97 31.6831Z" fill="white"/>
</g>
<g filter="url(#filter2_i_1_110)">
<path d="M148.653 30.8851C150.219 29.2979 152.781 29.2979 154.347 30.8851L186.227 63.1904C187.765 64.7481 187.765 67.2519 186.227 68.8096L154.347 101.115C152.781 102.702 150.219 102.702 148.653 101.115L116.773 68.8096C115.235 67.2519 115.235 64.7481 116.773 63.1904L148.653 30.8851Z" fill="#39BFA7"/>
</g>
<path d="M96.9804 129.4H90.0044V149H85.7004V129.4H78.7244V125.864H96.9804V129.4ZM102.453 135.432C102.965 134.451 103.573 133.683 104.277 133.128C104.981 132.563 105.813 132.28 106.773 132.28C107.53 132.28 108.138 132.445 108.597 132.776L108.341 135.736C108.288 135.928 108.208 136.067 108.101 136.152C108.005 136.227 107.872 136.264 107.701 136.264C107.541 136.264 107.301 136.237 106.981 136.184C106.672 136.131 106.368 136.104 106.069 136.104C105.632 136.104 105.242 136.168 104.901 136.296C104.56 136.424 104.25 136.611 103.973 136.856C103.706 137.091 103.466 137.379 103.253 137.72C103.05 138.061 102.858 138.451 102.677 138.888V149H98.7251V132.584H101.045C101.45 132.584 101.733 132.659 101.893 132.808C102.053 132.947 102.16 133.203 102.213 133.576L102.453 135.432ZM121.676 141.992C120.535 142.045 119.575 142.147 118.796 142.296C118.017 142.435 117.393 142.616 116.924 142.84C116.455 143.064 116.119 143.325 115.916 143.624C115.713 143.923 115.612 144.248 115.612 144.6C115.612 145.293 115.815 145.789 116.22 146.088C116.636 146.387 117.175 146.536 117.836 146.536C118.647 146.536 119.345 146.392 119.932 146.104C120.529 145.805 121.111 145.357 121.676 144.76V141.992ZM112.62 134.872C114.508 133.144 116.78 132.28 119.436 132.28C120.396 132.28 121.255 132.44 122.012 132.76C122.769 133.069 123.409 133.507 123.932 134.072C124.455 134.627 124.849 135.293 125.116 136.072C125.393 136.851 125.532 137.704 125.532 138.632V149H123.74C123.367 149 123.079 148.947 122.876 148.84C122.673 148.723 122.513 148.493 122.396 148.152L122.044 146.968C121.628 147.341 121.223 147.672 120.828 147.96C120.433 148.237 120.023 148.472 119.596 148.664C119.169 148.856 118.711 149 118.22 149.096C117.74 149.203 117.207 149.256 116.62 149.256C115.927 149.256 115.287 149.165 114.7 148.984C114.113 148.792 113.607 148.509 113.18 148.136C112.753 147.763 112.423 147.299 112.188 146.744C111.953 146.189 111.836 145.544 111.836 144.808C111.836 144.392 111.905 143.981 112.044 143.576C112.183 143.16 112.407 142.765 112.716 142.392C113.036 142.019 113.447 141.667 113.948 141.336C114.449 141.005 115.063 140.717 115.788 140.472C116.524 140.227 117.377 140.029 118.348 139.88C119.319 139.72 120.428 139.624 121.676 139.592V138.632C121.676 137.533 121.441 136.723 120.972 136.2C120.503 135.667 119.825 135.4 118.94 135.4C118.3 135.4 117.767 135.475 117.34 135.624C116.924 135.773 116.556 135.944 116.236 136.136C115.916 136.317 115.623 136.483 115.356 136.632C115.1 136.781 114.812 136.856 114.492 136.856C114.215 136.856 113.98 136.787 113.788 136.648C113.596 136.499 113.441 136.328 113.324 136.136L112.62 134.872ZM146.239 132.584L139.727 149H136.143L129.631 132.584H132.895C133.194 132.584 133.439 132.653 133.631 132.792C133.834 132.931 133.967 133.107 134.031 133.32L137.199 142.088C137.37 142.6 137.519 143.101 137.647 143.592C137.775 144.083 137.887 144.573 137.983 145.064C138.09 144.573 138.207 144.083 138.335 143.592C138.463 143.101 138.618 142.6 138.799 142.088L142.031 133.32C142.106 133.107 142.239 132.931 142.431 132.792C142.623 132.653 142.852 132.584 143.119 132.584H146.239ZM160.981 138.904C160.981 138.392 160.906 137.912 160.757 137.464C160.618 137.005 160.405 136.605 160.117 136.264C159.829 135.923 159.461 135.656 159.013 135.464C158.576 135.261 158.064 135.16 157.477 135.16C156.336 135.16 155.434 135.485 154.773 136.136C154.122 136.787 153.706 137.709 153.525 138.904H160.981ZM153.445 141.288C153.509 142.131 153.658 142.861 153.893 143.48C154.128 144.088 154.437 144.595 154.821 145C155.205 145.395 155.658 145.693 156.181 145.896C156.714 146.088 157.301 146.184 157.941 146.184C158.581 146.184 159.13 146.109 159.589 145.96C160.058 145.811 160.464 145.645 160.805 145.464C161.157 145.283 161.461 145.117 161.717 144.968C161.984 144.819 162.24 144.744 162.485 144.744C162.816 144.744 163.061 144.867 163.221 145.112L164.357 146.552C163.92 147.064 163.429 147.496 162.885 147.848C162.341 148.189 161.77 148.467 161.173 148.68C160.586 148.883 159.984 149.027 159.365 149.112C158.757 149.197 158.165 149.24 157.589 149.24C156.448 149.24 155.386 149.053 154.405 148.68C153.424 148.296 152.57 147.736 151.845 147C151.12 146.253 150.549 145.336 150.133 144.248C149.717 143.149 149.509 141.88 149.509 140.44C149.509 139.32 149.69 138.269 150.053 137.288C150.416 136.296 150.933 135.437 151.605 134.712C152.288 133.976 153.114 133.395 154.085 132.968C155.066 132.541 156.17 132.328 157.397 132.328C158.432 132.328 159.386 132.493 160.261 132.824C161.136 133.155 161.888 133.64 162.517 134.28C163.146 134.909 163.637 135.688 163.989 136.616C164.352 137.533 164.533 138.584 164.533 139.768C164.533 140.365 164.469 140.771 164.341 140.984C164.213 141.187 163.968 141.288 163.605 141.288H153.445ZM174.059 125.224V149H170.107V125.224H174.059ZM191.132 138.904C191.132 138.392 191.058 137.912 190.908 137.464C190.77 137.005 190.556 136.605 190.268 136.264C189.98 135.923 189.612 135.656 189.164 135.464C188.727 135.261 188.215 135.16 187.628 135.16C186.487 135.16 185.586 135.485 184.924 136.136C184.274 136.787 183.858 137.709 183.676 138.904H191.132ZM183.596 141.288C183.66 142.131 183.81 142.861 184.044 143.48C184.279 144.088 184.588 144.595 184.972 145C185.356 145.395 185.81 145.693 186.332 145.896C186.866 146.088 187.452 146.184 188.092 146.184C188.732 146.184 189.282 146.109 189.74 145.96C190.21 145.811 190.615 145.645 190.956 145.464C191.308 145.283 191.612 145.117 191.868 144.968C192.135 144.819 192.391 144.744 192.636 144.744C192.967 144.744 193.212 144.867 193.372 145.112L194.508 146.552C194.071 147.064 193.58 147.496 193.036 147.848C192.492 148.189 191.922 148.467 191.324 148.68C190.738 148.883 190.135 149.027 189.516 149.112C188.908 149.197 188.316 149.24 187.74 149.24C186.599 149.24 185.538 149.053 184.556 148.68C183.575 148.296 182.722 147.736 181.996 147C181.271 146.253 180.7 145.336 180.284 144.248C179.868 143.149 179.66 141.88 179.66 140.44C179.66 139.32 179.842 138.269 180.204 137.288C180.567 136.296 181.084 135.437 181.756 134.712C182.439 133.976 183.266 133.395 184.236 132.968C185.218 132.541 186.322 132.328 187.548 132.328C188.583 132.328 189.538 132.493 190.412 132.824C191.287 133.155 192.039 133.64 192.668 134.28C193.298 134.909 193.788 135.688 194.14 136.616C194.503 137.533 194.684 138.584 194.684 139.768C194.684 140.365 194.62 140.771 194.492 140.984C194.364 141.187 194.119 141.288 193.756 141.288H183.596ZM203.938 135.432C204.45 134.451 205.058 133.683 205.762 133.128C206.466 132.563 207.298 132.28 208.258 132.28C209.015 132.28 209.623 132.445 210.082 132.776L209.826 135.736C209.773 135.928 209.693 136.067 209.586 136.152C209.49 136.227 209.357 136.264 209.186 136.264C209.026 136.264 208.786 136.237 208.466 136.184C208.157 136.131 207.853 136.104 207.554 136.104C207.117 136.104 206.727 136.168 206.386 136.296C206.045 136.424 205.735 136.611 205.458 136.856C205.191 137.091 204.951 137.379 204.738 137.72C204.535 138.061 204.343 138.451 204.162 138.888V149H200.21V132.584H202.53C202.935 132.584 203.218 132.659 203.378 132.808C203.538 132.947 203.645 133.203 203.698 133.576L203.938 135.432ZM224.661 135.784C224.554 135.955 224.442 136.077 224.325 136.152C224.208 136.216 224.058 136.248 223.877 136.248C223.685 136.248 223.477 136.195 223.253 136.088C223.04 135.981 222.789 135.864 222.501 135.736C222.213 135.597 221.882 135.475 221.509 135.368C221.146 135.261 220.714 135.208 220.213 135.208C219.434 135.208 218.821 135.373 218.373 135.704C217.936 136.035 217.717 136.467 217.717 137C217.717 137.352 217.829 137.651 218.053 137.896C218.288 138.131 218.592 138.339 218.965 138.52C219.349 138.701 219.781 138.867 220.261 139.016C220.741 139.155 221.226 139.309 221.717 139.48C222.218 139.651 222.709 139.848 223.189 140.072C223.669 140.285 224.096 140.563 224.469 140.904C224.853 141.235 225.157 141.635 225.381 142.104C225.616 142.573 225.733 143.139 225.733 143.8C225.733 144.589 225.589 145.32 225.301 145.992C225.024 146.653 224.608 147.229 224.053 147.72C223.498 148.2 222.81 148.579 221.989 148.856C221.178 149.123 220.24 149.256 219.173 149.256C218.608 149.256 218.053 149.203 217.509 149.096C216.976 149 216.458 148.861 215.957 148.68C215.466 148.499 215.008 148.285 214.581 148.04C214.165 147.795 213.797 147.528 213.477 147.24L214.389 145.736C214.506 145.555 214.645 145.416 214.805 145.32C214.965 145.224 215.168 145.176 215.413 145.176C215.658 145.176 215.888 145.245 216.101 145.384C216.325 145.523 216.581 145.672 216.869 145.832C217.157 145.992 217.493 146.141 217.877 146.28C218.272 146.419 218.768 146.488 219.365 146.488C219.834 146.488 220.234 146.435 220.565 146.328C220.906 146.211 221.184 146.061 221.397 145.88C221.621 145.699 221.781 145.491 221.877 145.256C221.984 145.011 222.037 144.76 222.037 144.504C222.037 144.12 221.92 143.805 221.685 143.56C221.461 143.315 221.157 143.101 220.773 142.92C220.4 142.739 219.968 142.579 219.477 142.44C218.997 142.291 218.501 142.131 217.989 141.96C217.488 141.789 216.992 141.592 216.501 141.368C216.021 141.133 215.589 140.84 215.205 140.488C214.832 140.136 214.528 139.704 214.293 139.192C214.069 138.68 213.957 138.061 213.957 137.336C213.957 136.664 214.09 136.024 214.357 135.416C214.624 134.808 215.013 134.28 215.525 133.832C216.048 133.373 216.693 133.011 217.461 132.744C218.24 132.467 219.136 132.328 220.149 132.328C221.28 132.328 222.309 132.515 223.237 132.888C224.165 133.261 224.938 133.752 225.557 134.36L224.661 135.784ZM122.819 173.864V197H118.499V186.888H107.635V197H103.315V173.864H107.635V183.816H118.499V173.864H122.819ZM138.173 189.992C137.032 190.045 136.072 190.147 135.293 190.296C134.515 190.435 133.891 190.616 133.421 190.84C132.952 191.064 132.616 191.325 132.413 191.624C132.211 191.923 132.109 192.248 132.109 192.6C132.109 193.293 132.312 193.789 132.717 194.088C133.133 194.387 133.672 194.536 134.333 194.536C135.144 194.536 135.843 194.392 136.429 194.104C137.027 193.805 137.608 193.357 138.173 192.76V189.992ZM129.117 182.872C131.005 181.144 133.277 180.28 135.933 180.28C136.893 180.28 137.752 180.44 138.509 180.76C139.267 181.069 139.907 181.507 140.429 182.072C140.952 182.627 141.347 183.293 141.613 184.072C141.891 184.851 142.029 185.704 142.029 186.632V197H140.237C139.864 197 139.576 196.947 139.373 196.84C139.171 196.723 139.011 196.493 138.893 196.152L138.541 194.968C138.125 195.341 137.72 195.672 137.325 195.96C136.931 196.237 136.52 196.472 136.093 196.664C135.667 196.856 135.208 197 134.717 197.096C134.237 197.203 133.704 197.256 133.117 197.256C132.424 197.256 131.784 197.165 131.197 196.984C130.611 196.792 130.104 196.509 129.677 196.136C129.251 195.763 128.92 195.299 128.685 194.744C128.451 194.189 128.333 193.544 128.333 192.808C128.333 192.392 128.403 191.981 128.541 191.576C128.68 191.16 128.904 190.765 129.213 190.392C129.533 190.019 129.944 189.667 130.445 189.336C130.947 189.005 131.56 188.717 132.285 188.472C133.021 188.227 133.875 188.029 134.845 187.88C135.816 187.72 136.925 187.624 138.173 187.592V186.632C138.173 185.533 137.939 184.723 137.469 184.2C137 183.667 136.323 183.4 135.437 183.4C134.797 183.4 134.264 183.475 133.837 183.624C133.421 183.773 133.053 183.944 132.733 184.136C132.413 184.317 132.12 184.483 131.853 184.632C131.597 184.781 131.309 184.856 130.989 184.856C130.712 184.856 130.477 184.787 130.285 184.648C130.093 184.499 129.939 184.328 129.821 184.136L129.117 182.872ZM152.263 192.744C152.711 193.288 153.197 193.672 153.719 193.896C154.253 194.12 154.829 194.232 155.447 194.232C156.045 194.232 156.583 194.12 157.063 193.896C157.543 193.672 157.949 193.331 158.279 192.872C158.621 192.413 158.882 191.837 159.063 191.144C159.245 190.44 159.335 189.613 159.335 188.664C159.335 187.704 159.255 186.893 159.095 186.232C158.946 185.56 158.727 185.016 158.439 184.6C158.151 184.184 157.799 183.88 157.383 183.688C156.978 183.496 156.514 183.4 155.991 183.4C155.17 183.4 154.471 183.576 153.895 183.928C153.319 184.269 152.775 184.755 152.263 185.384V192.744ZM152.055 182.824C152.727 182.067 153.49 181.453 154.343 180.984C155.197 180.515 156.199 180.28 157.351 180.28C158.247 180.28 159.063 180.467 159.799 180.84C160.546 181.213 161.186 181.757 161.719 182.472C162.263 183.176 162.679 184.051 162.967 185.096C163.266 186.131 163.415 187.32 163.415 188.664C163.415 189.891 163.25 191.027 162.919 192.072C162.589 193.117 162.114 194.024 161.495 194.792C160.887 195.56 160.146 196.163 159.271 196.6C158.407 197.027 157.437 197.24 156.359 197.24C155.442 197.24 154.658 197.101 154.007 196.824C153.357 196.536 152.775 196.141 152.263 195.64V202.36H148.311V180.584H150.727C151.239 180.584 151.575 180.824 151.735 181.304L152.055 182.824ZM173.011 192.744C173.459 193.288 173.944 193.672 174.467 193.896C175 194.12 175.576 194.232 176.195 194.232C176.792 194.232 177.331 194.12 177.811 193.896C178.291 193.672 178.696 193.331 179.027 192.872C179.368 192.413 179.63 191.837 179.811 191.144C179.992 190.44 180.083 189.613 180.083 188.664C180.083 187.704 180.003 186.893 179.843 186.232C179.694 185.56 179.475 185.016 179.187 184.6C178.899 184.184 178.547 183.88 178.131 183.688C177.726 183.496 177.262 183.4 176.739 183.4C175.918 183.4 175.219 183.576 174.643 183.928C174.067 184.269 173.523 184.755 173.011 185.384V192.744ZM172.803 182.824C173.475 182.067 174.238 181.453 175.091 180.984C175.944 180.515 176.947 180.28 178.099 180.28C178.995 180.28 179.811 180.467 180.547 180.84C181.294 181.213 181.934 181.757 182.467 182.472C183.011 183.176 183.427 184.051 183.715 185.096C184.014 186.131 184.163 187.32 184.163 188.664C184.163 189.891 183.998 191.027 183.667 192.072C183.336 193.117 182.862 194.024 182.243 194.792C181.635 195.56 180.894 196.163 180.019 196.6C179.155 197.027 178.184 197.24 177.107 197.24C176.19 197.24 175.406 197.101 174.755 196.824C174.104 196.536 173.523 196.141 173.011 195.64V202.36H169.059V180.584H171.475C171.987 180.584 172.323 180.824 172.483 181.304L172.803 182.824ZM204.25 180.584L195.306 201.512C195.188 201.789 195.034 201.997 194.842 202.136C194.66 202.285 194.378 202.36 193.994 202.36H191.05L194.122 195.768L187.482 180.584H190.954C191.263 180.584 191.503 180.659 191.674 180.808C191.855 180.957 191.988 181.128 192.074 181.32L195.562 189.832C195.679 190.12 195.775 190.408 195.85 190.696C195.935 190.984 196.015 191.277 196.09 191.576C196.186 191.277 196.282 190.984 196.378 190.696C196.474 190.397 196.58 190.104 196.698 189.816L199.994 181.32C200.079 181.107 200.218 180.931 200.41 180.792C200.612 180.653 200.836 180.584 201.082 180.584H204.25Z" fill="#222222"/>
<path d="M136.406 72.15V74H128.406V72.15H131.336V63.72C131.336 63.3867 131.346 63.0433 131.366 62.69L129.286 64.43C129.166 64.5233 129.046 64.5833 128.926 64.61C128.813 64.63 128.703 64.63 128.596 64.61C128.496 64.59 128.406 64.5567 128.326 64.51C128.246 64.4567 128.186 64.4 128.146 64.34L127.366 63.27L131.776 59.52H133.806V72.15H136.406ZM146.577 68.55V63.82C146.577 63.3733 146.607 62.88 146.667 62.34L142.177 68.55H146.577ZM150.547 68.55V69.98C150.547 70.1133 150.504 70.23 150.417 70.33C150.331 70.4233 150.207 70.47 150.047 70.47H148.727V74H146.577V70.47H140.477C140.311 70.47 140.164 70.42 140.037 70.32C139.911 70.2133 139.831 70.0833 139.797 69.93L139.537 68.68L146.387 59.53H148.727V68.55H150.547ZM156.549 59.14V67.65H157.009C157.176 67.65 157.306 67.63 157.399 67.59C157.499 67.5433 157.599 67.4533 157.699 67.32L160.249 64.17C160.356 64.03 160.472 63.9233 160.599 63.85C160.732 63.7767 160.902 63.74 161.109 63.74H163.369L160.179 67.55C159.952 67.85 159.706 68.08 159.439 68.24C159.579 68.34 159.702 68.4567 159.809 68.59C159.922 68.7233 160.029 68.8667 160.129 69.02L163.549 74H161.319C161.126 74 160.959 73.97 160.819 73.91C160.679 73.8433 160.562 73.7267 160.469 73.56L157.849 69.67C157.756 69.5167 157.659 69.4167 157.559 69.37C157.459 69.3233 157.309 69.3 157.109 69.3H156.549V74H154.079V59.14H156.549ZM176.023 68.2H172.143V72.32H170.133V68.2H166.273V66.37H170.133V62.27H172.143V66.37H176.023V68.2Z" fill="white"/>
<g filter="url(#filter3_di_1_110)">
<path d="M461.858 8.37437C463.616 6.61701 466.465 6.61701 468.222 8.37436L600.605 140.757C602.362 142.514 602.362 145.363 600.605 147.121L468.222 279.503C466.465 281.26 463.616 281.26 461.858 279.503L329.476 147.121C327.719 145.363 327.719 142.514 329.476 140.757L461.858 8.37437Z" stroke="#39BFA7" stroke-width="13" shape-rendering="crispEdges"/>
</g>
<g filter="url(#filter4_di_1_110)">
<path fill-rule="evenodd" clip-rule="evenodd" d="M592.868 151.419C596.773 147.513 596.773 141.182 592.868 137.276L472.52 16.9289C468.615 13.0237 462.283 13.0237 458.378 16.9289L338.031 137.276C334.125 141.182 334.125 147.513 338.031 151.419L458.378 271.766C462.283 275.671 468.615 275.671 472.52 271.766L592.868 151.419ZM470.556 28.8547C467.432 25.7305 462.367 25.7305 459.243 28.8547L427.701 60.3961C424.577 63.5203 424.577 68.5856 427.701 71.7098L459.243 103.251C462.367 106.375 467.432 106.375 470.556 103.251L502.098 71.7098C505.222 68.5856 505.222 63.5203 502.098 60.3961L470.556 28.8547ZM462.071 31.6831C463.633 30.121 466.166 30.121 467.728 31.6831L499.269 63.2245C500.832 64.7866 500.832 67.3193 499.269 68.8814L467.728 100.423C466.166 101.985 463.633 101.985 462.071 100.423L430.53 68.8814C428.968 67.3193 428.968 64.7866 430.53 63.2245L462.071 31.6831Z" fill="white"/>
</g>
<g filter="url(#filter5_i_1_110)">
<path d="M461.755 30.8851C463.321 29.2979 465.882 29.2979 467.449 30.8851L499.329 63.1904C500.866 64.7481 500.866 67.2519 499.329 68.8096L467.449 101.115C465.882 102.702 463.321 102.702 461.755 101.115L429.874 68.8096C428.337 67.2519 428.337 64.7481 429.874 63.1904L461.755 30.8851Z" fill="#39BFA7"/>
</g>
<path d="M404.41 145.448V149H390.858V125.864H395.162V145.448H404.41ZM415.839 132.328C417.055 132.328 418.159 132.525 419.151 132.92C420.154 133.315 421.007 133.875 421.711 134.6C422.426 135.325 422.975 136.211 423.359 137.256C423.743 138.301 423.935 139.469 423.935 140.76C423.935 142.061 423.743 143.235 423.359 144.28C422.975 145.325 422.426 146.216 421.711 146.952C421.007 147.688 420.154 148.253 419.151 148.648C418.159 149.043 417.055 149.24 415.839 149.24C414.613 149.24 413.498 149.043 412.495 148.648C411.493 148.253 410.634 147.688 409.919 146.952C409.215 146.216 408.666 145.325 408.271 144.28C407.887 143.235 407.695 142.061 407.695 140.76C407.695 139.469 407.887 138.301 408.271 137.256C408.666 136.211 409.215 135.325 409.919 134.6C410.634 133.875 411.493 133.315 412.495 132.92C413.498 132.525 414.613 132.328 415.839 132.328ZM415.839 146.2C417.205 146.2 418.213 145.741 418.863 144.824C419.525 143.907 419.855 142.563 419.855 140.792C419.855 139.021 419.525 137.672 418.863 136.744C418.213 135.816 417.205 135.352 415.839 135.352C414.453 135.352 413.423 135.821 412.751 136.76C412.09 137.688 411.759 139.032 411.759 140.792C411.759 142.552 412.09 143.896 412.751 144.824C413.423 145.741 414.453 146.2 415.839 146.2ZM441.27 136.056C441.153 136.205 441.036 136.323 440.918 136.408C440.812 136.493 440.652 136.536 440.438 136.536C440.236 136.536 440.038 136.477 439.846 136.36C439.654 136.232 439.425 136.093 439.158 135.944C438.892 135.784 438.572 135.645 438.198 135.528C437.836 135.4 437.382 135.336 436.838 135.336C436.145 135.336 435.537 135.464 435.014 135.72C434.492 135.965 434.054 136.323 433.702 136.792C433.361 137.261 433.105 137.832 432.934 138.504C432.764 139.165 432.678 139.917 432.678 140.76C432.678 141.635 432.769 142.413 432.95 143.096C433.142 143.779 433.414 144.355 433.766 144.824C434.118 145.283 434.545 145.635 435.046 145.88C435.548 146.115 436.113 146.232 436.742 146.232C437.372 146.232 437.878 146.157 438.262 146.008C438.657 145.848 438.988 145.677 439.254 145.496C439.521 145.304 439.75 145.133 439.942 144.984C440.145 144.824 440.369 144.744 440.614 144.744C440.934 144.744 441.174 144.867 441.334 145.112L442.47 146.552C442.033 147.064 441.558 147.496 441.046 147.848C440.534 148.189 440.001 148.467 439.446 148.68C438.902 148.883 438.337 149.027 437.75 149.112C437.174 149.197 436.598 149.24 436.022 149.24C435.009 149.24 434.054 149.053 433.158 148.68C432.262 148.296 431.478 147.741 430.806 147.016C430.134 146.291 429.601 145.405 429.206 144.36C428.822 143.304 428.63 142.104 428.63 140.76C428.63 139.555 428.801 138.44 429.142 137.416C429.494 136.381 430.006 135.491 430.678 134.744C431.35 133.987 432.182 133.395 433.174 132.968C434.166 132.541 435.308 132.328 436.598 132.328C437.825 132.328 438.897 132.525 439.814 132.92C440.742 133.315 441.574 133.88 442.31 134.616L441.27 136.056ZM456.18 141.992C455.039 142.045 454.079 142.147 453.3 142.296C452.521 142.435 451.897 142.616 451.428 142.84C450.959 143.064 450.623 143.325 450.42 143.624C450.217 143.923 450.116 144.248 450.116 144.6C450.116 145.293 450.319 145.789 450.724 146.088C451.14 146.387 451.679 146.536 452.34 146.536C453.151 146.536 453.849 146.392 454.436 146.104C455.033 145.805 455.615 145.357 456.18 144.76V141.992ZM447.124 134.872C449.012 133.144 451.284 132.28 453.94 132.28C454.9 132.28 455.759 132.44 456.516 132.76C457.273 133.069 457.913 133.507 458.436 134.072C458.959 134.627 459.353 135.293 459.62 136.072C459.897 136.851 460.036 137.704 460.036 138.632V149H458.244C457.871 149 457.583 148.947 457.38 148.84C457.177 148.723 457.017 148.493 456.9 148.152L456.548 146.968C456.132 147.341 455.727 147.672 455.332 147.96C454.937 148.237 454.527 148.472 454.1 148.664C453.673 148.856 453.215 149 452.724 149.096C452.244 149.203 451.711 149.256 451.124 149.256C450.431 149.256 449.791 149.165 449.204 148.984C448.617 148.792 448.111 148.509 447.684 148.136C447.257 147.763 446.927 147.299 446.692 146.744C446.457 146.189 446.34 145.544 446.34 144.808C446.34 144.392 446.409 143.981 446.548 143.576C446.687 143.16 446.911 142.765 447.22 142.392C447.54 142.019 447.951 141.667 448.452 141.336C448.953 141.005 449.567 140.717 450.292 140.472C451.028 140.227 451.881 140.029 452.852 139.88C453.823 139.72 454.932 139.624 456.18 139.592V138.632C456.18 137.533 455.945 136.723 455.476 136.2C455.007 135.667 454.329 135.4 453.444 135.4C452.804 135.4 452.271 135.475 451.844 135.624C451.428 135.773 451.06 135.944 450.74 136.136C450.42 136.317 450.127 136.483 449.86 136.632C449.604 136.781 449.316 136.856 448.996 136.856C448.719 136.856 448.484 136.787 448.292 136.648C448.1 136.499 447.945 136.328 447.828 136.136L447.124 134.872ZM482.659 149H478.707V135.544H471.091V144.44C471.091 144.952 471.214 145.352 471.459 145.64C471.715 145.928 472.062 146.072 472.499 146.072C472.745 146.072 472.947 146.045 473.107 145.992C473.278 145.928 473.422 145.864 473.539 145.8C473.667 145.736 473.779 145.677 473.875 145.624C473.971 145.56 474.067 145.528 474.163 145.528C474.281 145.528 474.377 145.56 474.451 145.624C474.526 145.677 474.606 145.763 474.691 145.88L475.875 147.8C475.299 148.28 474.638 148.643 473.891 148.888C473.145 149.133 472.371 149.256 471.571 149.256C470.142 149.256 469.043 148.856 468.275 148.056C467.518 147.245 467.139 146.131 467.139 144.712V135.544H465.459C465.246 135.544 465.065 135.475 464.915 135.336C464.766 135.197 464.691 134.989 464.691 134.712V133.144L467.331 132.696L468.163 128.232C468.217 128.019 468.318 127.853 468.467 127.736C468.617 127.619 468.809 127.56 469.043 127.56H471.091V132.728H482.659V149ZM483.347 127.736C483.347 128.077 483.278 128.403 483.139 128.712C483.001 129.011 482.814 129.272 482.579 129.496C482.355 129.72 482.083 129.901 481.763 130.04C481.454 130.168 481.123 130.232 480.771 130.232C480.43 130.232 480.11 130.168 479.811 130.04C479.513 129.901 479.251 129.72 479.027 129.496C478.803 129.272 478.622 129.011 478.483 128.712C478.355 128.403 478.291 128.077 478.291 127.736C478.291 127.384 478.355 127.059 478.483 126.76C478.622 126.451 478.803 126.184 479.027 125.96C479.251 125.725 479.513 125.544 479.811 125.416C480.11 125.277 480.43 125.208 480.771 125.208C481.123 125.208 481.454 125.277 481.763 125.416C482.083 125.544 482.355 125.725 482.579 125.96C482.814 126.184 483.001 126.451 483.139 126.76C483.278 127.059 483.347 127.384 483.347 127.736ZM496.517 132.328C497.733 132.328 498.837 132.525 499.829 132.92C500.832 133.315 501.685 133.875 502.389 134.6C503.104 135.325 503.653 136.211 504.037 137.256C504.421 138.301 504.613 139.469 504.613 140.76C504.613 142.061 504.421 143.235 504.037 144.28C503.653 145.325 503.104 146.216 502.389 146.952C501.685 147.688 500.832 148.253 499.829 148.648C498.837 149.043 497.733 149.24 496.517 149.24C495.29 149.24 494.176 149.043 493.173 148.648C492.17 148.253 491.312 147.688 490.597 146.952C489.893 146.216 489.344 145.325 488.949 144.28C488.565 143.235 488.373 142.061 488.373 140.76C488.373 139.469 488.565 138.301 488.949 137.256C489.344 136.211 489.893 135.325 490.597 134.6C491.312 133.875 492.17 133.315 493.173 132.92C494.176 132.525 495.29 132.328 496.517 132.328ZM496.517 146.2C497.882 146.2 498.89 145.741 499.541 144.824C500.202 143.907 500.533 142.563 500.533 140.792C500.533 139.021 500.202 137.672 499.541 136.744C498.89 135.816 497.882 135.352 496.517 135.352C495.13 135.352 494.101 135.821 493.429 136.76C492.768 137.688 492.437 139.032 492.437 140.792C492.437 142.552 492.768 143.896 493.429 144.824C494.101 145.741 495.13 146.2 496.517 146.2ZM513.884 134.6C514.215 134.269 514.561 133.965 514.924 133.688C515.297 133.4 515.687 133.16 516.092 132.968C516.508 132.765 516.951 132.611 517.42 132.504C517.889 132.387 518.401 132.328 518.956 132.328C519.852 132.328 520.647 132.483 521.34 132.792C522.033 133.091 522.609 133.517 523.068 134.072C523.537 134.616 523.889 135.272 524.124 136.04C524.369 136.797 524.492 137.635 524.492 138.552V149H520.54V138.552C520.54 137.549 520.311 136.776 519.852 136.232C519.393 135.677 518.695 135.4 517.756 135.4C517.073 135.4 516.433 135.555 515.836 135.864C515.239 136.173 514.673 136.595 514.14 137.128V149H510.188V132.584H512.604C513.116 132.584 513.452 132.824 513.612 133.304L513.884 134.6ZM540.826 135.784C540.72 135.955 540.608 136.077 540.49 136.152C540.373 136.216 540.224 136.248 540.042 136.248C539.85 136.248 539.642 136.195 539.418 136.088C539.205 135.981 538.954 135.864 538.666 135.736C538.378 135.597 538.048 135.475 537.674 135.368C537.312 135.261 536.88 135.208 536.378 135.208C535.6 135.208 534.986 135.373 534.538 135.704C534.101 136.035 533.882 136.467 533.882 137C533.882 137.352 533.994 137.651 534.218 137.896C534.453 138.131 534.757 138.339 535.13 138.52C535.514 138.701 535.946 138.867 536.426 139.016C536.906 139.155 537.392 139.309 537.882 139.48C538.384 139.651 538.874 139.848 539.354 140.072C539.834 140.285 540.261 140.563 540.634 140.904C541.018 141.235 541.322 141.635 541.546 142.104C541.781 142.573 541.898 143.139 541.898 143.8C541.898 144.589 541.754 145.32 541.466 145.992C541.189 146.653 540.773 147.229 540.218 147.72C539.664 148.2 538.976 148.579 538.154 148.856C537.344 149.123 536.405 149.256 535.338 149.256C534.773 149.256 534.218 149.203 533.674 149.096C533.141 149 532.624 148.861 532.122 148.68C531.632 148.499 531.173 148.285 530.746 148.04C530.33 147.795 529.962 147.528 529.642 147.24L530.554 145.736C530.672 145.555 530.81 145.416 530.97 145.32C531.13 145.224 531.333 145.176 531.578 145.176C531.824 145.176 532.053 145.245 532.266 145.384C532.49 145.523 532.746 145.672 533.034 145.832C533.322 145.992 533.658 146.141 534.042 146.28C534.437 146.419 534.933 146.488 535.53 146.488C536 146.488 536.4 146.435 536.73 146.328C537.072 146.211 537.349 146.061 537.562 145.88C537.786 145.699 537.946 145.491 538.042 145.256C538.149 145.011 538.202 144.76 538.202 144.504C538.202 144.12 538.085 143.805 537.85 143.56C537.626 143.315 537.322 143.101 536.938 142.92C536.565 142.739 536.133 142.579 535.642 142.44C535.162 142.291 534.666 142.131 534.154 141.96C533.653 141.789 533.157 141.592 532.666 141.368C532.186 141.133 531.754 140.84 531.37 140.488C530.997 140.136 530.693 139.704 530.458 139.192C530.234 138.68 530.122 138.061 530.122 137.336C530.122 136.664 530.256 136.024 530.522 135.416C530.789 134.808 531.178 134.28 531.69 133.832C532.213 133.373 532.858 133.011 533.626 132.744C534.405 132.467 535.301 132.328 536.314 132.328C537.445 132.328 538.474 132.515 539.402 132.888C540.33 133.261 541.104 133.752 541.722 134.36L540.826 135.784ZM439.022 191.544C439.257 191.544 439.465 191.635 439.646 191.816L441.342 193.656C440.404 194.819 439.246 195.709 437.87 196.328C436.505 196.947 434.862 197.256 432.942 197.256C431.225 197.256 429.678 196.963 428.302 196.376C426.937 195.789 425.769 194.973 424.798 193.928C423.828 192.883 423.081 191.635 422.558 190.184C422.046 188.733 421.79 187.149 421.79 185.432C421.79 183.693 422.068 182.104 422.622 180.664C423.177 179.213 423.956 177.965 424.958 176.92C425.972 175.875 427.177 175.064 428.574 174.488C429.972 173.901 431.518 173.608 433.214 173.608C434.9 173.608 436.393 173.885 437.694 174.44C439.006 174.995 440.121 175.72 441.038 176.616L439.598 178.616C439.513 178.744 439.401 178.856 439.262 178.952C439.134 179.048 438.953 179.096 438.719 179.096C438.558 179.096 438.393 179.053 438.222 178.968C438.052 178.872 437.865 178.76 437.662 178.632C437.46 178.493 437.225 178.344 436.958 178.184C436.692 178.024 436.382 177.88 436.03 177.752C435.678 177.613 435.268 177.501 434.798 177.416C434.34 177.32 433.806 177.272 433.198 177.272C432.164 177.272 431.214 177.459 430.35 177.832C429.497 178.195 428.761 178.728 428.142 179.432C427.524 180.125 427.044 180.979 426.702 181.992C426.361 182.995 426.19 184.141 426.19 185.432C426.19 186.733 426.372 187.891 426.734 188.904C427.108 189.917 427.609 190.771 428.238 191.464C428.868 192.157 429.609 192.691 430.462 193.064C431.316 193.427 432.233 193.608 433.214 193.608C433.801 193.608 434.329 193.576 434.798 193.512C435.278 193.448 435.716 193.347 436.11 193.208C436.516 193.069 436.894 192.893 437.247 192.68C437.609 192.456 437.966 192.184 438.318 191.864C438.425 191.768 438.537 191.693 438.654 191.64C438.772 191.576 438.894 191.544 439.022 191.544ZM454.899 189.992C453.757 190.045 452.797 190.147 452.019 190.296C451.24 190.435 450.616 190.616 450.147 190.84C449.677 191.064 449.341 191.325 449.139 191.624C448.936 191.923 448.835 192.248 448.835 192.6C448.835 193.293 449.037 193.789 449.443 194.088C449.859 194.387 450.397 194.536 451.059 194.536C451.869 194.536 452.568 194.392 453.155 194.104C453.752 193.805 454.333 193.357 454.899 192.76V189.992ZM445.843 182.872C447.731 181.144 450.003 180.28 452.659 180.28C453.619 180.28 454.477 180.44 455.235 180.76C455.992 181.069 456.632 181.507 457.155 182.072C457.677 182.627 458.072 183.293 458.339 184.072C458.616 184.851 458.755 185.704 458.755 186.632V197H456.963C456.589 197 456.301 196.947 456.099 196.84C455.896 196.723 455.736 196.493 455.619 196.152L455.267 194.968C454.851 195.341 454.445 195.672 454.051 195.96C453.656 196.237 453.245 196.472 452.819 196.664C452.392 196.856 451.933 197 451.443 197.096C450.963 197.203 450.429 197.256 449.843 197.256C449.149 197.256 448.509 197.165 447.923 196.984C447.336 196.792 446.829 196.509 446.403 196.136C445.976 195.763 445.645 195.299 445.411 194.744C445.176 194.189 445.059 193.544 445.059 192.808C445.059 192.392 445.128 191.981 445.267 191.576C445.405 191.16 445.629 190.765 445.939 190.392C446.259 190.019 446.669 189.667 447.171 189.336C447.672 189.005 448.285 188.717 449.011 188.472C449.747 188.227 450.6 188.029 451.571 187.88C452.541 187.72 453.651 187.624 454.899 187.592V186.632C454.899 185.533 454.664 184.723 454.195 184.2C453.725 183.667 453.048 183.4 452.163 183.4C451.523 183.4 450.989 183.475 450.563 183.624C450.147 183.773 449.779 183.944 449.459 184.136C449.139 184.317 448.845 184.483 448.579 184.632C448.323 184.781 448.035 184.856 447.715 184.856C447.437 184.856 447.203 184.787 447.011 184.648C446.819 184.499 446.664 184.328 446.547 184.136L445.843 182.872ZM465.037 197V180.584H467.453C467.965 180.584 468.301 180.824 468.461 181.304L468.717 182.52C469.005 182.2 469.303 181.907 469.613 181.64C469.933 181.373 470.269 181.144 470.621 180.952C470.983 180.76 471.367 180.611 471.773 180.504C472.189 180.387 472.642 180.328 473.133 180.328C474.167 180.328 475.015 180.611 475.677 181.176C476.349 181.731 476.85 182.472 477.181 183.4C477.437 182.856 477.757 182.392 478.141 182.008C478.525 181.613 478.946 181.293 479.405 181.048C479.863 180.803 480.349 180.621 480.861 180.504C481.383 180.387 481.906 180.328 482.429 180.328C483.335 180.328 484.141 180.467 484.845 180.744C485.549 181.021 486.141 181.427 486.621 181.96C487.101 182.493 487.463 183.144 487.709 183.912C487.965 184.68 488.093 185.56 488.093 186.552V197H484.141V186.552C484.141 185.507 483.911 184.723 483.453 184.2C482.994 183.667 482.322 183.4 481.437 183.4C481.031 183.4 480.653 183.469 480.301 183.608C479.959 183.747 479.655 183.949 479.389 184.216C479.133 184.472 478.93 184.797 478.781 185.192C478.631 185.587 478.557 186.04 478.557 186.552V197H474.589V186.552C474.589 185.453 474.365 184.653 473.917 184.152C473.479 183.651 472.834 183.4 471.981 183.4C471.405 183.4 470.866 183.544 470.365 183.832C469.874 184.109 469.415 184.493 468.989 184.984V197H465.037ZM498.361 192.744C498.809 193.288 499.295 193.672 499.817 193.896C500.351 194.12 500.927 194.232 501.545 194.232C502.143 194.232 502.681 194.12 503.161 193.896C503.641 193.672 504.047 193.331 504.377 192.872C504.719 192.413 504.98 191.837 505.161 191.144C505.343 190.44 505.433 189.613 505.433 188.664C505.433 187.704 505.353 186.893 505.193 186.232C505.044 185.56 504.825 185.016 504.537 184.6C504.249 184.184 503.897 183.88 503.481 183.688C503.076 183.496 502.612 183.4 502.089 183.4C501.268 183.4 500.569 183.576 499.993 183.928C499.417 184.269 498.873 184.755 498.361 185.384V192.744ZM498.153 182.824C498.825 182.067 499.588 181.453 500.441 180.984C501.295 180.515 502.297 180.28 503.449 180.28C504.345 180.28 505.161 180.467 505.897 180.84C506.644 181.213 507.284 181.757 507.817 182.472C508.361 183.176 508.777 184.051 509.065 185.096C509.364 186.131 509.513 187.32 509.513 188.664C509.513 189.891 509.348 191.027 509.017 192.072C508.687 193.117 508.212 194.024 507.593 194.792C506.985 195.56 506.244 196.163 505.369 196.6C504.505 197.027 503.535 197.24 502.457 197.24C501.54 197.24 500.756 197.101 500.105 196.824C499.455 196.536 498.873 196.141 498.361 195.64V202.36H494.409V180.584H496.825C497.337 180.584 497.673 180.824 497.833 181.304L498.153 182.824Z" fill="#222222"/>
<path d="M455.209 71.7C455.476 71.7 455.686 71.7767 455.839 71.93C455.999 72.0767 456.079 72.2733 456.079 72.52V74H446.159V73.18C446.159 73.0133 446.193 72.84 446.259 72.66C446.333 72.4733 446.446 72.3067 446.599 72.16L450.989 67.76C451.356 67.3867 451.683 67.03 451.969 66.69C452.263 66.35 452.506 66.0133 452.699 65.68C452.893 65.3467 453.039 65.01 453.139 64.67C453.246 64.3233 453.299 63.96 453.299 63.58C453.299 63.2333 453.249 62.93 453.149 62.67C453.049 62.4033 452.906 62.18 452.719 62C452.539 61.82 452.319 61.6867 452.059 61.6C451.806 61.5067 451.519 61.46 451.199 61.46C450.906 61.46 450.633 61.5033 450.379 61.59C450.133 61.67 449.913 61.7867 449.719 61.94C449.526 62.0867 449.363 62.26 449.229 62.46C449.096 62.66 448.996 62.88 448.929 63.12C448.816 63.4267 448.669 63.63 448.489 63.73C448.309 63.83 448.049 63.8533 447.709 63.8L446.409 63.57C446.509 62.8767 446.703 62.27 446.989 61.75C447.276 61.2233 447.633 60.7867 448.059 60.44C448.493 60.0867 448.986 59.8233 449.539 59.65C450.099 59.47 450.699 59.38 451.339 59.38C452.006 59.38 452.616 59.48 453.169 59.68C453.723 59.8733 454.196 60.15 454.589 60.51C454.983 60.87 455.289 61.3033 455.509 61.81C455.729 62.3167 455.839 62.88 455.839 63.5C455.839 64.0333 455.759 64.5267 455.599 64.98C455.446 65.4333 455.236 65.8667 454.969 66.28C454.709 66.6933 454.403 67.0933 454.049 67.48C453.696 67.8667 453.326 68.26 452.939 68.66L449.679 71.99C449.993 71.8967 450.303 71.8267 450.609 71.78C450.923 71.7267 451.219 71.7 451.499 71.7H455.209ZM462.861 64.79C463.181 64.7233 463.488 64.6767 463.781 64.65C464.074 64.6167 464.358 64.6 464.631 64.6C465.391 64.6 466.061 64.7133 466.641 64.94C467.221 65.1667 467.708 65.48 468.101 65.88C468.494 66.28 468.791 66.75 468.991 67.29C469.191 67.8233 469.291 68.4 469.291 69.02C469.291 69.7867 469.154 70.4867 468.881 71.12C468.614 71.7533 468.241 72.2967 467.761 72.75C467.281 73.1967 466.711 73.5433 466.051 73.79C465.398 74.0367 464.684 74.16 463.911 74.16C463.458 74.16 463.028 74.1133 462.621 74.02C462.214 73.9267 461.831 73.8033 461.471 73.65C461.118 73.49 460.788 73.31 460.481 73.11C460.181 72.9033 459.911 72.6867 459.671 72.46L460.431 71.41C460.591 71.1833 460.801 71.07 461.061 71.07C461.228 71.07 461.398 71.1233 461.571 71.23C461.744 71.3367 461.941 71.4533 462.161 71.58C462.388 71.7067 462.651 71.8233 462.951 71.93C463.258 72.0367 463.624 72.09 464.051 72.09C464.504 72.09 464.904 72.0167 465.251 71.87C465.598 71.7233 465.884 71.52 466.111 71.26C466.344 70.9933 466.518 70.68 466.631 70.32C466.751 69.9533 466.811 69.5567 466.811 69.13C466.811 68.3433 466.581 67.73 466.121 67.29C465.668 66.8433 464.994 66.62 464.101 66.62C463.414 66.62 462.711 66.7467 461.991 67L460.451 66.56L461.651 59.54H468.791V60.59C468.791 60.9433 468.681 61.23 468.461 61.45C468.241 61.67 467.868 61.78 467.341 61.78H463.371L462.861 64.79ZM482.882 68.2H479.002V72.32H476.992V68.2H473.132V66.37H476.992V62.27H479.002V66.37H482.882V68.2Z" fill="white"/>
<g filter="url(#filter6_di_1_110)">
<path d="M774.96 8.37437C776.717 6.61701 779.567 6.61701 781.324 8.37436L913.706 140.757C915.464 142.514 915.464 145.363 913.706 147.121L781.324 279.503C779.567 281.26 776.717 281.26 774.96 279.503L642.578 147.121C640.82 145.363 640.82 142.514 642.578 140.757L774.96 8.37437Z" stroke="#39BFA7" stroke-width="13" shape-rendering="crispEdges"/>
</g>
<g filter="url(#filter7_di_1_110)">
<path fill-rule="evenodd" clip-rule="evenodd" d="M905.969 151.419C909.875 147.513 909.875 141.182 905.969 137.276L785.622 16.9289C781.717 13.0237 775.385 13.0237 771.48 16.9289L651.132 137.276C647.227 141.182 647.227 147.513 651.132 151.419L771.48 271.766C775.385 275.671 781.717 275.671 785.622 271.766L905.969 151.419ZM783.658 28.8547C780.534 25.7305 775.469 25.7305 772.344 28.8547L740.803 60.3961C737.679 63.5203 737.679 68.5856 740.803 71.7098L772.344 103.251C775.469 106.375 780.534 106.375 783.658 103.251L815.199 71.7098C818.324 68.5856 818.324 63.5203 815.199 60.3961L783.658 28.8547ZM775.173 31.6831C776.735 30.121 779.268 30.121 780.83 31.6831L812.371 63.2245C813.933 64.7866 813.933 67.3193 812.371 68.8814L780.83 100.423C779.268 101.985 776.735 101.985 775.173 100.423L743.631 68.8814C742.069 67.3193 742.069 64.7866 743.631 63.2245L775.173 31.6831Z" fill="white"/>
</g>
<g filter="url(#filter8_i_1_110)">
<path d="M774.856 30.8851C776.422 29.2979 778.984 29.2979 780.55 30.8851L812.431 63.1904C813.968 64.7481 813.968 67.2519 812.431 68.8096L780.55 101.115C778.984 102.702 776.422 102.702 774.856 101.115L742.976 68.8096C741.439 67.2519 741.439 64.7481 742.976 63.1904L774.856 30.8851Z" fill="#39BFA7"/>
</g>
<path d="M764.261 143.4V152.76C763.088 153.624 761.835 154.259 760.501 154.664C759.179 155.059 757.76 155.256 756.245 155.256C754.357 155.256 752.645 154.963 751.109 154.376C749.584 153.789 748.277 152.973 747.189 151.928C746.112 150.883 745.28 149.635 744.693 148.184C744.107 146.733 743.813 145.149 743.813 143.432C743.813 141.693 744.096 140.099 744.661 138.648C745.227 137.197 746.027 135.949 747.061 134.904C748.107 133.859 749.371 133.048 750.853 132.472C752.336 131.896 754 131.608 755.845 131.608C756.784 131.608 757.659 131.683 758.469 131.832C759.291 131.981 760.048 132.189 760.741 132.456C761.445 132.712 762.085 133.027 762.661 133.4C763.237 133.773 763.765 134.184 764.245 134.632L763.013 136.584C762.821 136.893 762.571 137.085 762.261 137.16C761.952 137.224 761.616 137.144 761.253 136.92C760.901 136.717 760.549 136.515 760.197 136.312C759.845 136.109 759.451 135.933 759.013 135.784C758.587 135.635 758.101 135.512 757.557 135.416C757.024 135.32 756.405 135.272 755.701 135.272C754.56 135.272 753.525 135.464 752.597 135.848C751.68 136.232 750.896 136.781 750.245 137.496C749.595 138.211 749.093 139.069 748.741 140.072C748.389 141.075 748.213 142.195 748.213 143.432C748.213 144.755 748.4 145.939 748.773 146.984C749.157 148.019 749.691 148.899 750.373 149.624C751.067 150.339 751.899 150.888 752.869 151.272C753.84 151.645 754.923 151.832 756.117 151.832C756.971 151.832 757.733 151.741 758.405 151.56C759.077 151.379 759.733 151.133 760.373 150.824V146.632H757.461C757.184 146.632 756.965 146.557 756.805 146.408C756.656 146.248 756.581 146.056 756.581 145.832V143.4H764.261ZM774.377 138.584V155H770.409V138.584H774.377ZM774.921 133.8C774.921 134.141 774.852 134.461 774.713 134.76C774.575 135.059 774.388 135.32 774.153 135.544C773.929 135.768 773.663 135.949 773.353 136.088C773.044 136.216 772.713 136.28 772.361 136.28C772.02 136.28 771.695 136.216 771.385 136.088C771.087 135.949 770.825 135.768 770.601 135.544C770.377 135.32 770.196 135.059 770.057 134.76C769.929 134.461 769.865 134.141 769.865 133.8C769.865 133.448 769.929 133.117 770.057 132.808C770.196 132.499 770.377 132.232 770.601 132.008C770.825 131.784 771.087 131.608 771.385 131.48C771.695 131.341 772.02 131.272 772.361 131.272C772.713 131.272 773.044 131.341 773.353 131.48C773.663 131.608 773.929 131.784 774.153 132.008C774.388 132.232 774.575 132.499 774.713 132.808C774.852 133.117 774.921 133.448 774.921 133.8ZM791.27 142.776C790.822 142.232 790.332 141.848 789.798 141.624C789.276 141.4 788.71 141.288 788.102 141.288C787.505 141.288 786.966 141.4 786.486 141.624C786.006 141.848 785.596 142.189 785.254 142.648C784.913 143.096 784.652 143.672 784.47 144.376C784.289 145.069 784.198 145.891 784.198 146.84C784.198 147.8 784.273 148.616 784.422 149.288C784.582 149.949 784.806 150.493 785.094 150.92C785.382 151.336 785.734 151.64 786.15 151.832C786.566 152.013 787.03 152.104 787.542 152.104C788.364 152.104 789.062 151.933 789.638 151.592C790.214 151.251 790.758 150.765 791.27 150.136V142.776ZM795.222 131.224V155H792.806C792.284 155 791.953 154.76 791.814 154.28L791.478 152.696C790.817 153.453 790.054 154.067 789.19 154.536C788.337 155.005 787.34 155.24 786.198 155.24C785.302 155.24 784.481 155.053 783.734 154.68C782.988 154.307 782.342 153.768 781.798 153.064C781.265 152.349 780.849 151.469 780.55 150.424C780.262 149.379 780.118 148.184 780.118 146.84C780.118 145.624 780.284 144.493 780.614 143.448C780.945 142.403 781.42 141.496 782.038 140.728C782.657 139.96 783.398 139.363 784.262 138.936C785.126 138.499 786.097 138.28 787.174 138.28C788.092 138.28 788.876 138.424 789.526 138.712C790.177 139 790.758 139.389 791.27 139.88V131.224H795.222ZM811.699 141.784C811.592 141.955 811.48 142.077 811.363 142.152C811.245 142.216 811.096 142.248 810.915 142.248C810.723 142.248 810.515 142.195 810.291 142.088C810.077 141.981 809.827 141.864 809.539 141.736C809.251 141.597 808.92 141.475 808.547 141.368C808.184 141.261 807.752 141.208 807.251 141.208C806.472 141.208 805.859 141.373 805.411 141.704C804.973 142.035 804.755 142.467 804.755 143C804.755 143.352 804.867 143.651 805.091 143.896C805.325 144.131 805.629 144.339 806.003 144.52C806.387 144.701 806.819 144.867 807.299 145.016C807.779 145.155 808.264 145.309 808.755 145.48C809.256 145.651 809.747 145.848 810.227 146.072C810.707 146.285 811.133 146.563 811.507 146.904C811.891 147.235 812.195 147.635 812.419 148.104C812.653 148.573 812.771 149.139 812.771 149.8C812.771 150.589 812.627 151.32 812.339 151.992C812.061 152.653 811.645 153.229 811.091 153.72C810.536 154.2 809.848 154.579 809.027 154.856C808.216 155.123 807.277 155.256 806.211 155.256C805.645 155.256 805.091 155.203 804.547 155.096C804.013 155 803.496 154.861 802.995 154.68C802.504 154.499 802.045 154.285 801.619 154.04C801.203 153.795 800.835 153.528 800.515 153.24L801.427 151.736C801.544 151.555 801.683 151.416 801.843 151.32C802.003 151.224 802.205 151.176 802.451 151.176C802.696 151.176 802.925 151.245 803.139 151.384C803.363 151.523 803.619 151.672 803.907 151.832C804.195 151.992 804.531 152.141 804.915 152.28C805.309 152.419 805.805 152.488 806.403 152.488C806.872 152.488 807.272 152.435 807.603 152.328C807.944 152.211 808.221 152.061 808.435 151.88C808.659 151.699 808.819 151.491 808.915 151.256C809.021 151.011 809.075 150.76 809.075 150.504C809.075 150.12 808.957 149.805 808.723 149.56C808.499 149.315 808.195 149.101 807.811 148.92C807.437 148.739 807.005 148.579 806.515 148.44C806.035 148.291 805.539 148.131 805.027 147.96C804.525 147.789 804.029 147.592 803.539 147.368C803.059 147.133 802.627 146.84 802.243 146.488C801.869 146.136 801.565 145.704 801.331 145.192C801.107 144.68 800.995 144.061 800.995 143.336C800.995 142.664 801.128 142.024 801.395 141.416C801.661 140.808 802.051 140.28 802.563 139.832C803.085 139.373 803.731 139.011 804.499 138.744C805.277 138.467 806.173 138.328 807.187 138.328C808.317 138.328 809.347 138.515 810.275 138.888C811.203 139.261 811.976 139.752 812.595 140.36L811.699 141.784Z" fill="#222222"/>
<path d="M775.052 72.15V74H767.052V72.15H769.982V63.72C769.982 63.3867 769.992 63.0433 770.012 62.69L767.932 64.43C767.812 64.5233 767.692 64.5833 767.572 64.61C767.458 64.63 767.348 64.63 767.242 64.61C767.142 64.59 767.052 64.5567 766.972 64.51C766.892 64.4567 766.832 64.4 766.792 64.34L766.012 63.27L770.422 59.52H772.452V72.15H775.052ZM787.913 71.7C788.18 71.7 788.39 71.7767 788.543 71.93C788.703 72.0767 788.783 72.2733 788.783 72.52V74H778.863V73.18C778.863 73.0133 778.897 72.84 778.963 72.66C779.037 72.4733 779.15 72.3067 779.303 72.16L783.693 67.76C784.06 67.3867 784.387 67.03 784.673 66.69C784.967 66.35 785.21 66.0133 785.403 65.68C785.597 65.3467 785.743 65.01 785.843 64.67C785.95 64.3233 786.003 63.96 786.003 63.58C786.003 63.2333 785.953 62.93 785.853 62.67C785.753 62.4033 785.61 62.18 785.423 62C785.243 61.82 785.023 61.6867 784.763 61.6C784.51 61.5067 784.223 61.46 783.903 61.46C783.61 61.46 783.337 61.5033 783.083 61.59C782.837 61.67 782.617 61.7867 782.423 61.94C782.23 62.0867 782.067 62.26 781.933 62.46C781.8 62.66 781.7 62.88 781.633 63.12C781.52 63.4267 781.373 63.63 781.193 63.73C781.013 63.83 780.753 63.8533 780.413 63.8L779.113 63.57C779.213 62.8767 779.407 62.27 779.693 61.75C779.98 61.2233 780.337 60.7867 780.763 60.44C781.197 60.0867 781.69 59.8233 782.243 59.65C782.803 59.47 783.403 59.38 784.043 59.38C784.71 59.38 785.32 59.48 785.873 59.68C786.427 59.8733 786.9 60.15 787.293 60.51C787.687 60.87 787.993 61.3033 788.213 61.81C788.433 62.3167 788.543 62.88 788.543 63.5C788.543 64.0333 788.463 64.5267 788.303 64.98C788.15 65.4333 787.94 65.8667 787.673 66.28C787.413 66.6933 787.107 67.0933 786.753 67.48C786.4 67.8667 786.03 68.26 785.643 68.66L782.383 71.99C782.697 71.8967 783.007 71.8267 783.313 71.78C783.627 71.7267 783.923 71.7 784.203 71.7H787.913Z" fill="white"/>
<g filter="url(#filter9_di_1_110)">
<path d="M1088.06 8.37437C1089.82 6.61701 1092.67 6.61701 1094.43 8.37436L1226.81 140.757C1228.57 142.514 1228.57 145.363 1226.81 147.121L1094.43 279.503C1092.67 281.26 1089.82 281.26 1088.06 279.503L955.679 147.121C953.922 145.363 953.922 142.514 955.679 140.757L1088.06 8.37437Z" stroke="#39BFA7" stroke-width="13" shape-rendering="crispEdges"/>
</g>
<g filter="url(#filter10_di_1_110)">
<path fill-rule="evenodd" clip-rule="evenodd" d="M1219.07 151.419C1222.98 147.513 1222.98 141.182 1219.07 137.276L1098.72 16.9289C1094.82 13.0237 1088.49 13.0237 1084.58 16.9289L964.234 137.276C960.329 141.182 960.329 147.513 964.234 151.419L1084.58 271.766C1088.49 275.671 1094.82 275.671 1098.72 271.766L1219.07 151.419ZM1096.76 28.8547C1093.64 25.7305 1088.57 25.7305 1085.45 28.8547L1053.9 60.3961C1050.78 63.5203 1050.78 68.5856 1053.9 71.7098L1085.45 103.251C1088.57 106.375 1093.64 106.375 1096.76 103.251L1128.3 71.7098C1131.43 68.5856 1131.43 63.5203 1128.3 60.3961L1096.76 28.8547ZM1088.27 31.6831C1089.84 30.121 1092.37 30.121 1093.93 31.6831L1125.47 63.2245C1127.03 64.7866 1127.03 67.3193 1125.47 68.8814L1093.93 100.423C1092.37 101.985 1089.84 101.985 1088.27 100.423L1056.73 68.8814C1055.17 67.3193 1055.17 64.7866 1056.73 63.2245L1088.27 31.6831Z" fill="white"/>
</g>
<g filter="url(#filter11_i_1_110)">
<path d="M1087.96 30.8851C1089.52 29.2979 1092.09 29.2979 1093.65 30.8851L1125.53 63.1904C1127.07 64.7481 1127.07 67.2519 1125.53 68.8096L1093.65 101.115C1092.09 102.702 1089.52 102.702 1087.96 101.115L1056.08 68.8096C1054.54 67.2519 1054.54 64.7481 1056.08 63.1904L1087.96 30.8851Z" fill="#39BFA7"/>
</g>
<path d="M1060.99 146.04V155H1056.71V146.04L1048.27 131.864H1052.07C1052.44 131.864 1052.73 131.955 1052.95 132.136C1053.17 132.317 1053.36 132.547 1053.51 132.824L1057.73 140.552C1057.98 141.011 1058.19 141.443 1058.37 141.848C1058.56 142.253 1058.73 142.659 1058.88 143.064C1059.02 142.659 1059.18 142.253 1059.36 141.848C1059.54 141.443 1059.75 141.011 1059.99 140.552L1064.19 132.824C1064.31 132.589 1064.49 132.371 1064.72 132.168C1064.96 131.965 1065.26 131.864 1065.62 131.864H1069.43L1060.99 146.04ZM1080.69 144.904C1080.69 144.392 1080.62 143.912 1080.47 143.464C1080.33 143.005 1080.12 142.605 1079.83 142.264C1079.54 141.923 1079.17 141.656 1078.73 141.464C1078.29 141.261 1077.78 141.16 1077.19 141.16C1076.05 141.16 1075.15 141.485 1074.49 142.136C1073.84 142.787 1073.42 143.709 1073.24 144.904H1080.69ZM1073.16 147.288C1073.22 148.131 1073.37 148.861 1073.61 149.48C1073.84 150.088 1074.15 150.595 1074.53 151C1074.92 151.395 1075.37 151.693 1075.89 151.896C1076.43 152.088 1077.01 152.184 1077.65 152.184C1078.29 152.184 1078.84 152.109 1079.3 151.96C1079.77 151.811 1080.18 151.645 1080.52 151.464C1080.87 151.283 1081.17 151.117 1081.43 150.968C1081.7 150.819 1081.95 150.744 1082.2 150.744C1082.53 150.744 1082.77 150.867 1082.93 151.112L1084.07 152.552C1083.63 153.064 1083.14 153.496 1082.6 153.848C1082.05 154.189 1081.48 154.467 1080.89 154.68C1080.3 154.883 1079.7 155.027 1079.08 155.112C1078.47 155.197 1077.88 155.24 1077.3 155.24C1076.16 155.24 1075.1 155.053 1074.12 154.68C1073.14 154.296 1072.28 153.736 1071.56 153C1070.83 152.253 1070.26 151.336 1069.85 150.248C1069.43 149.149 1069.22 147.88 1069.22 146.44C1069.22 145.32 1069.4 144.269 1069.77 143.288C1070.13 142.296 1070.65 141.437 1071.32 140.712C1072 139.976 1072.83 139.395 1073.8 138.968C1074.78 138.541 1075.88 138.328 1077.11 138.328C1078.15 138.328 1079.1 138.493 1079.97 138.824C1080.85 139.155 1081.6 139.64 1082.23 140.28C1082.86 140.909 1083.35 141.688 1083.7 142.616C1084.07 143.533 1084.25 144.584 1084.25 145.768C1084.25 146.365 1084.18 146.771 1084.05 146.984C1083.93 147.187 1083.68 147.288 1083.32 147.288H1073.16ZM1098.44 147.992C1097.3 148.045 1096.34 148.147 1095.56 148.296C1094.79 148.435 1094.16 148.616 1093.69 148.84C1093.22 149.064 1092.89 149.325 1092.68 149.624C1092.48 149.923 1092.38 150.248 1092.38 150.6C1092.38 151.293 1092.58 151.789 1092.99 152.088C1093.4 152.387 1093.94 152.536 1094.6 152.536C1095.42 152.536 1096.11 152.392 1096.7 152.104C1097.3 151.805 1097.88 151.357 1098.44 150.76V147.992ZM1089.39 140.872C1091.28 139.144 1093.55 138.28 1096.2 138.28C1097.16 138.28 1098.02 138.44 1098.78 138.76C1099.54 139.069 1100.18 139.507 1100.7 140.072C1101.22 140.627 1101.62 141.293 1101.88 142.072C1102.16 142.851 1102.3 143.704 1102.3 144.632V155H1100.51C1100.14 155 1099.85 154.947 1099.64 154.84C1099.44 154.723 1099.28 154.493 1099.16 154.152L1098.81 152.968C1098.4 153.341 1097.99 153.672 1097.6 153.96C1097.2 154.237 1096.79 154.472 1096.36 154.664C1095.94 154.856 1095.48 155 1094.99 155.096C1094.51 155.203 1093.98 155.256 1093.39 155.256C1092.7 155.256 1092.06 155.165 1091.47 154.984C1090.88 154.792 1090.38 154.509 1089.95 154.136C1089.52 153.763 1089.19 153.299 1088.96 152.744C1088.72 152.189 1088.6 151.544 1088.6 150.808C1088.6 150.392 1088.67 149.981 1088.81 149.576C1088.95 149.16 1089.18 148.765 1089.48 148.392C1089.8 148.019 1090.22 147.667 1090.72 147.336C1091.22 147.005 1091.83 146.717 1092.56 146.472C1093.29 146.227 1094.15 146.029 1095.12 145.88C1096.09 145.72 1097.2 145.624 1098.44 145.592V144.632C1098.44 143.533 1098.21 142.723 1097.74 142.2C1097.27 141.667 1096.59 141.4 1095.71 141.4C1095.07 141.4 1094.54 141.475 1094.11 141.624C1093.69 141.773 1093.32 141.944 1093 142.136C1092.68 142.317 1092.39 142.483 1092.12 142.632C1091.87 142.781 1091.58 142.856 1091.26 142.856C1090.98 142.856 1090.75 142.787 1090.56 142.648C1090.36 142.499 1090.21 142.328 1090.09 142.136L1089.39 140.872ZM1112.31 141.432C1112.82 140.451 1113.43 139.683 1114.13 139.128C1114.84 138.563 1115.67 138.28 1116.63 138.28C1117.39 138.28 1118 138.445 1118.45 138.776L1118.2 141.736C1118.15 141.928 1118.07 142.067 1117.96 142.152C1117.86 142.227 1117.73 142.264 1117.56 142.264C1117.4 142.264 1117.16 142.237 1116.84 142.184C1116.53 142.131 1116.23 142.104 1115.93 142.104C1115.49 142.104 1115.1 142.168 1114.76 142.296C1114.42 142.424 1114.11 142.611 1113.83 142.856C1113.56 143.091 1113.32 143.379 1113.11 143.72C1112.91 144.061 1112.72 144.451 1112.53 144.888V155H1108.58V138.584H1110.9C1111.31 138.584 1111.59 138.659 1111.75 138.808C1111.91 138.947 1112.02 139.203 1112.07 139.576L1112.31 141.432ZM1133.03 141.784C1132.93 141.955 1132.81 142.077 1132.7 142.152C1132.58 142.216 1132.43 142.248 1132.25 142.248C1132.06 142.248 1131.85 142.195 1131.63 142.088C1131.41 141.981 1131.16 141.864 1130.87 141.736C1130.59 141.597 1130.25 141.475 1129.88 141.368C1129.52 141.261 1129.09 141.208 1128.59 141.208C1127.81 141.208 1127.19 141.373 1126.75 141.704C1126.31 142.035 1126.09 142.467 1126.09 143C1126.09 143.352 1126.2 143.651 1126.43 143.896C1126.66 144.131 1126.96 144.339 1127.34 144.52C1127.72 144.701 1128.15 144.867 1128.63 145.016C1129.11 145.155 1129.6 145.309 1130.09 145.48C1130.59 145.651 1131.08 145.848 1131.56 146.072C1132.04 146.285 1132.47 146.563 1132.84 146.904C1133.23 147.235 1133.53 147.635 1133.75 148.104C1133.99 148.573 1134.11 149.139 1134.11 149.8C1134.11 150.589 1133.96 151.32 1133.67 151.992C1133.4 152.653 1132.98 153.229 1132.43 153.72C1131.87 154.2 1131.18 154.579 1130.36 154.856C1129.55 155.123 1128.61 155.256 1127.55 155.256C1126.98 155.256 1126.43 155.203 1125.88 155.096C1125.35 155 1124.83 154.861 1124.33 154.68C1123.84 154.499 1123.38 154.285 1122.95 154.04C1122.54 153.795 1122.17 153.528 1121.85 153.24L1122.76 151.736C1122.88 151.555 1123.02 151.416 1123.18 151.32C1123.34 151.224 1123.54 151.176 1123.79 151.176C1124.03 151.176 1124.26 151.245 1124.47 151.384C1124.7 151.523 1124.95 151.672 1125.24 151.832C1125.53 151.992 1125.87 152.141 1126.25 152.28C1126.64 152.419 1127.14 152.488 1127.74 152.488C1128.21 152.488 1128.61 152.435 1128.94 152.328C1129.28 152.211 1129.56 152.061 1129.77 151.88C1129.99 151.699 1130.15 151.491 1130.25 151.256C1130.36 151.011 1130.41 150.76 1130.41 150.504C1130.41 150.12 1130.29 149.805 1130.06 149.56C1129.83 149.315 1129.53 149.101 1129.15 148.92C1128.77 148.739 1128.34 148.579 1127.85 148.44C1127.37 148.291 1126.87 148.131 1126.36 147.96C1125.86 147.789 1125.36 147.592 1124.87 147.368C1124.39 147.133 1123.96 146.84 1123.58 146.488C1123.2 146.136 1122.9 145.704 1122.67 145.192C1122.44 144.68 1122.33 144.061 1122.33 143.336C1122.33 142.664 1122.46 142.024 1122.73 141.416C1123 140.808 1123.39 140.28 1123.9 139.832C1124.42 139.373 1125.07 139.011 1125.83 138.744C1126.61 138.467 1127.51 138.328 1128.52 138.328C1129.65 138.328 1130.68 138.515 1131.61 138.888C1132.54 139.261 1133.31 139.752 1133.93 140.36L1133.03 141.784ZM1069.48 183.288V189.704H1077.58V193.016H1069.48V199.56H1079.76V203H1065.16V179.864H1079.76V183.288H1069.48ZM1100.16 203H1096.35C1096.07 203 1095.83 202.925 1095.65 202.776C1095.48 202.627 1095.34 202.456 1095.22 202.264L1091.75 196.552C1091.69 196.733 1091.63 196.904 1091.55 197.064C1091.49 197.224 1091.42 197.373 1091.33 197.512L1088.26 202.264C1088.14 202.445 1088 202.616 1087.83 202.776C1087.66 202.925 1087.44 203 1087.19 203H1083.65L1089.28 194.536L1083.87 186.584H1087.68C1087.97 186.584 1088.18 186.627 1088.32 186.712C1088.46 186.787 1088.58 186.915 1088.69 187.096L1092.13 192.568C1092.25 192.205 1092.41 191.848 1092.63 191.496L1095.39 187.176C1095.63 186.781 1095.93 186.584 1096.31 186.584H1099.94L1094.55 194.36L1100.16 203ZM1108.74 198.744C1109.19 199.288 1109.67 199.672 1110.19 199.896C1110.73 200.12 1111.3 200.232 1111.92 200.232C1112.52 200.232 1113.06 200.12 1113.54 199.896C1114.02 199.672 1114.42 199.331 1114.75 198.872C1115.1 198.413 1115.36 197.837 1115.54 197.144C1115.72 196.44 1115.81 195.613 1115.81 194.664C1115.81 193.704 1115.73 192.893 1115.57 192.232C1115.42 191.56 1115.2 191.016 1114.91 190.6C1114.63 190.184 1114.27 189.88 1113.86 189.688C1113.45 189.496 1112.99 189.4 1112.47 189.4C1111.64 189.4 1110.95 189.576 1110.37 189.928C1109.79 190.269 1109.25 190.755 1108.74 191.384V198.744ZM1108.53 188.824C1109.2 188.067 1109.96 187.453 1110.82 186.984C1111.67 186.515 1112.67 186.28 1113.83 186.28C1114.72 186.28 1115.54 186.467 1116.27 186.84C1117.02 187.213 1117.66 187.757 1118.19 188.472C1118.74 189.176 1119.15 190.051 1119.44 191.096C1119.74 192.131 1119.89 193.32 1119.89 194.664C1119.89 195.891 1119.72 197.027 1119.39 198.072C1119.06 199.117 1118.59 200.024 1117.97 200.792C1117.36 201.56 1116.62 202.163 1115.75 202.6C1114.88 203.027 1113.91 203.24 1112.83 203.24C1111.92 203.24 1111.13 203.101 1110.48 202.824C1109.83 202.536 1109.25 202.141 1108.74 201.64V208.36H1104.79V186.584H1107.2C1107.71 186.584 1108.05 186.824 1108.21 187.304L1108.53 188.824Z" fill="#222222"/>
<path d="M1088.15 72.15V74H1080.15V72.15H1083.08V63.72C1083.08 63.3867 1083.09 63.0433 1083.11 62.69L1081.03 64.43C1080.91 64.5233 1080.79 64.5833 1080.67 64.61C1080.56 64.63 1080.45 64.63 1080.34 64.61C1080.24 64.59 1080.15 64.5567 1080.07 64.51C1079.99 64.4567 1079.93 64.4 1079.89 64.34L1079.11 63.27L1083.52 59.52H1085.55V72.15H1088.15ZM1101.55 72.15V74H1093.55V72.15H1096.48V63.72C1096.48 63.3867 1096.49 63.0433 1096.51 62.69L1094.43 64.43C1094.31 64.5233 1094.19 64.5833 1094.07 64.61C1093.96 64.63 1093.85 64.63 1093.74 64.61C1093.64 64.59 1093.55 64.5567 1093.47 64.51C1093.39 64.4567 1093.33 64.4 1093.29 64.34L1092.51 63.27L1096.92 59.52H1098.95V72.15H1101.55Z" fill="white"/>
<defs>
<filter id="filter0_di_1_110" x="0.556351" y="0.556351" width="302.765" height="302.765" filterUnits="userSpaceOnUse" color-interpolation-filters="sRGB">
<feFlood flood-opacity="0" result="BackgroundImageFix"/>
<feColorMatrix in="SourceAlpha" type="matrix" values="0 0 0 0 0 0 0 0 0 0 0 0 0 0 0 0 0 0 127 0" result="hardAlpha"/>
<feOffset dy="8"/>
<feGaussianBlur stdDeviation="4"/>
<feComposite in2="hardAlpha" operator="out"/>
<feColorMatrix type="matrix" values="0 0 0 0 0 0 0 0 0 0.407762 0 0 0 0 0.358831 0 0 0 0.25 0"/>
<feBlend mode="normal" in2="BackgroundImageFix" result="effect1_dropShadow_1_110"/>
<feBlend mode="normal" in="SourceGraphic" in2="effect1_dropShadow_1_110" result="shape"/>
<feColorMatrix in="SourceAlpha" type="matrix" values="0 0 0 0 0 0 0 0 0 0 0 0 0 0 0 0 0 0 127 0" result="hardAlpha"/>
<feOffset dy="2.2"/>
<feGaussianBlur stdDeviation="2.2"/>
<feComposite in2="hardAlpha" operator="arithmetic" k2="-1" k3="1"/>
<feColorMatrix type="matrix" values="0 0 0 0 1 0 0 0 0 1 0 0 0 0 1 0 0 0 0.25 0"/>
<feBlend mode="normal" in2="shape" result="effect2_innerShadow_1_110"/>
</filter>
<filter id="filter1_di_1_110" x="14" y="10" width="276.695" height="276.695" filterUnits="userSpaceOnUse" color-interpolation-filters="sRGB">
<feFlood flood-opacity="0" result="BackgroundImageFix"/>
<feColorMatrix in="SourceAlpha" type="matrix" values="0 0 0 0 0 0 0 0 0 0 0 0 0 0 0 0 0 0 127 0" result="hardAlpha"/>
<feOffset dy="4"/>
<feGaussianBlur stdDeviation="4"/>
<feComposite in2="hardAlpha" operator="out"/>
<feColorMatrix type="matrix" values="0 0 0 0 0.242029 0 0 0 0 0 0 0 0 0 0 0 0 0 0.25 0"/>
<feBlend mode="normal" in2="BackgroundImageFix" result="effect1_dropShadow_1_110"/>
<feBlend mode="normal" in="SourceGraphic" in2="effect1_dropShadow_1_110" result="shape"/>
<feColorMatrix in="SourceAlpha" type="matrix" values="0 0 0 0 0 0 0 0 0 0 0 0 0 0 0 0 0 0 127 0" result="hardAlpha"/>
<feOffset dy="2"/>
<feGaussianBlur stdDeviation="2"/>
<feComposite in2="hardAlpha" operator="arithmetic" k2="-1" k3="1"/>
<feColorMatrix type="matrix" values="0 0 0 0 0.224172 0 0 0 0 0 0 0 0 0 0 0 0 0 0.25 0"/>
<feBlend mode="normal" in2="shape" result="effect2_innerShadow_1_110"/>
</filter>
<filter id="filter2_i_1_110" x="115.62" y="29.6947" width="71.7605" height="74.6106" filterUnits="userSpaceOnUse" color-interpolation-filters="sRGB">
<feFlood flood-opacity="0" result="BackgroundImageFix"/>
<feBlend mode="normal" in="SourceGraphic" in2="BackgroundImageFix" result="shape"/>
<feColorMatrix in="SourceAlpha" type="matrix" values="0 0 0 0 0 0 0 0 0 0 0 0 0 0 0 0 0 0 127 0" result="hardAlpha"/>
<feOffset dy="2"/>
<feGaussianBlur stdDeviation="2"/>
<feComposite in2="hardAlpha" operator="arithmetic" k2="-1" k3="1"/>
<feColorMatrix type="matrix" values="0 0 0 0 0.164648 0 0 0 0 0.0247999 0 0 0 0 0.0247999 0 0 0 0.23 0"/>
<feBlend mode="normal" in2="shape" result="effect1_innerShadow_1_110"/>
</filter>
<filter id="filter3_di_1_110" x="313.658" y="0.556351" width="302.765" height="302.765" filterUnits="userSpaceOnUse" color-interpolation-filters="sRGB">
<feFlood flood-opacity="0" result="BackgroundImageFix"/>
<feColorMatrix in="SourceAlpha" type="matrix" values="0 0 0 0 0 0 0 0 0 0 0 0 0 0 0 0 0 0 127 0" result="hardAlpha"/>
<feOffset dy="8"/>
<feGaussianBlur stdDeviation="4"/>
<feComposite in2="hardAlpha" operator="out"/>
<feColorMatrix type="matrix" values="0 0 0 0 0 0 0 0 0 0.407762 0 0 0 0 0.358831 0 0 0 0.25 0"/>
<feBlend mode="normal" in2="BackgroundImageFix" result="effect1_dropShadow_1_110"/>
<feBlend mode="normal" in="SourceGraphic" in2="effect1_dropShadow_1_110" result="shape"/>
<feColorMatrix in="SourceAlpha" type="matrix" values="0 0 0 0 0 0 0 0 0 0 0 0 0 0 0 0 0 0 127 0" result="hardAlpha"/>
<feOffset dy="2.2"/>
<feGaussianBlur stdDeviation="2.2"/>
<feComposite in2="hardAlpha" operator="arithmetic" k2="-1" k3="1"/>
<feColorMatrix type="matrix" values="0 0 0 0 1 0 0 0 0 1 0 0 0 0 1 0 0 0 0.25 0"/>
<feBlend mode="normal" in2="shape" result="effect2_innerShadow_1_110"/>
</filter>
<filter id="filter4_di_1_110" x="327.102" y="10" width="276.695" height="276.695" filterUnits="userSpaceOnUse" color-interpolation-filters="sRGB">
<feFlood flood-opacity="0" result="BackgroundImageFix"/>
<feColorMatrix in="SourceAlpha" type="matrix" values="0 0 0 0 0 0 0 0 0 0 0 0 0 0 0 0 0 0 127 0" result="hardAlpha"/>
<feOffset dy="4"/>
<feGaussianBlur stdDeviation="4"/>
<feComposite in2="hardAlpha" operator="out"/>
<feColorMatrix type="matrix" values="0 0 0 0 0.242029 0 0 0 0 0 0 0 0 0 0 0 0 0 0.25 0"/>
<feBlend mode="normal" in2="BackgroundImageFix" result="effect1_dropShadow_1_110"/>
<feBlend mode="normal" in="SourceGraphic" in2="effect1_dropShadow_1_110" result="shape"/>
<feColorMatrix in="SourceAlpha" type="matrix" values="0 0 0 0 0 0 0 0 0 0 0 0 0 0 0 0 0 0 127 0" result="hardAlpha"/>
<feOffset dy="2"/>
<feGaussianBlur stdDeviation="2"/>
<feComposite in2="hardAlpha" operator="arithmetic" k2="-1" k3="1"/>
<feColorMatrix type="matrix" values="0 0 0 0 0.224172 0 0 0 0 0 0 0 0 0 0 0 0 0 0.25 0"/>
<feBlend mode="normal" in2="shape" result="effect2_innerShadow_1_110"/>
</filter>
<filter id="filter5_i_1_110" x="428.721" y="29.6947" width="71.7605" height="74.6106" filterUnits="userSpaceOnUse" color-interpolation-filters="sRGB">
<feFlood flood-opacity="0" result="BackgroundImageFix"/>
<feBlend mode="normal" in="SourceGraphic" in2="BackgroundImageFix" result="shape"/>
<feColorMatrix in="SourceAlpha" type="matrix" values="0 0 0 0 0 0 0 0 0 0 0 0 0 0 0 0 0 0 127 0" result="hardAlpha"/>
<feOffset dy="2"/>
<feGaussianBlur stdDeviation="2"/>
<feComposite in2="hardAlpha" operator="arithmetic" k2="-1" k3="1"/>
<feColorMatrix type="matrix" values="0 0 0 0 0.164648 0 0 0 0 0.0247999 0 0 0 0 0.0247999 0 0 0 0.23 0"/>
<feBlend mode="normal" in2="shape" result="effect1_innerShadow_1_110"/>
</filter>
<filter id="filter6_di_1_110" x="626.76" y="0.556351" width="302.765" height="302.765" filterUnits="userSpaceOnUse" color-interpolation-filters="sRGB">
<feFlood flood-opacity="0" result="BackgroundImageFix"/>
<feColorMatrix in="SourceAlpha" type="matrix" values="0 0 0 0 0 0 0 0 0 0 0 0 0 0 0 0 0 0 127 0" result="hardAlpha"/>
<feOffset dy="8"/>
<feGaussianBlur stdDeviation="4"/>
<feComposite in2="hardAlpha" operator="out"/>
<feColorMatrix type="matrix" values="0 0 0 0 0 0 0 0 0 0.407762 0 0 0 0 0.358831 0 0 0 0.25 0"/>
<feBlend mode="normal" in2="BackgroundImageFix" result="effect1_dropShadow_1_110"/>
<feBlend mode="normal" in="SourceGraphic" in2="effect1_dropShadow_1_110" result="shape"/>
<feColorMatrix in="SourceAlpha" type="matrix" values="0 0 0 0 0 0 0 0 0 0 0 0 0 0 0 0 0 0 127 0" result="hardAlpha"/>
<feOffset dy="2.2"/>
<feGaussianBlur stdDeviation="2.2"/>
<feComposite in2="hardAlpha" operator="arithmetic" k2="-1" k3="1"/>
<feColorMatrix type="matrix" values="0 0 0 0 1 0 0 0 0 1 0 0 0 0 1 0 0 0 0.25 0"/>
<feBlend mode="normal" in2="shape" result="effect2_innerShadow_1_110"/>
</filter>
<filter id="filter7_di_1_110" x="640.203" y="10" width="276.695" height="276.695" filterUnits="userSpaceOnUse" color-interpolation-filters="sRGB">
<feFlood flood-opacity="0" result="BackgroundImageFix"/>
<feColorMatrix in="SourceAlpha" type="matrix" values="0 0 0 0 0 0 0 0 0 0 0 0 0 0 0 0 0 0 127 0" result="hardAlpha"/>
<feOffset dy="4"/>
<feGaussianBlur stdDeviation="4"/>
<feComposite in2="hardAlpha" operator="out"/>
<feColorMatrix type="matrix" values="0 0 0 0 0 0 0 0 0 0.242029 0 0 0 0 0.227508 0 0 0 0.25 0"/>
<feBlend mode="normal" in2="BackgroundImageFix" result="effect1_dropShadow_1_110"/>
<feBlend mode="normal" in="SourceGraphic" in2="effect1_dropShadow_1_110" result="shape"/>
<feColorMatrix in="SourceAlpha" type="matrix" values="0 0 0 0 0 0 0 0 0 0 0 0 0 0 0 0 0 0 127 0" result="hardAlpha"/>
<feOffset dy="2"/>
<feGaussianBlur stdDeviation="2"/>
<feComposite in2="hardAlpha" operator="arithmetic" k2="-1" k3="1"/>
<feColorMatrix type="matrix" values="0 0 0 0 0.224172 0 0 0 0 0 0 0 0 0 0 0 0 0 0.25 0"/>
<feBlend mode="normal" in2="shape" result="effect2_innerShadow_1_110"/>
</filter>
<filter id="filter8_i_1_110" x="741.823" y="29.6947" width="71.7605" height="74.6106" filterUnits="userSpaceOnUse" color-interpolation-filters="sRGB">
<feFlood flood-opacity="0" result="BackgroundImageFix"/>
<feBlend mode="normal" in="SourceGraphic" in2="BackgroundImageFix" result="shape"/>
<feColorMatrix in="SourceAlpha" type="matrix" values="0 0 0 0 0 0 0 0 0 0 0 0 0 0 0 0 0 0 127 0" result="hardAlpha"/>
<feOffset dy="2"/>
<feGaussianBlur stdDeviation="2"/>
<feComposite in2="hardAlpha" operator="arithmetic" k2="-1" k3="1"/>
<feColorMatrix type="matrix" values="0 0 0 0 0.164648 0 0 0 0 0.0247999 0 0 0 0 0.0247999 0 0 0 0.23 0"/>
<feBlend mode="normal" in2="shape" result="effect1_innerShadow_1_110"/>
</filter>
<filter id="filter9_di_1_110" x="939.861" y="0.556351" width="302.765" height="302.765" filterUnits="userSpaceOnUse" color-interpolation-filters="sRGB">
<feFlood flood-opacity="0" result="BackgroundImageFix"/>
<feColorMatrix in="SourceAlpha" type="matrix" values="0 0 0 0 0 0 0 0 0 0 0 0 0 0 0 0 0 0 127 0" result="hardAlpha"/>
<feOffset dy="8"/>
<feGaussianBlur stdDeviation="4"/>
<feComposite in2="hardAlpha" operator="out"/>
<feColorMatrix type="matrix" values="0 0 0 0 0 0 0 0 0 0.407762 0 0 0 0 0.358831 0 0 0 0.25 0"/>
<feBlend mode="normal" in2="BackgroundImageFix" result="effect1_dropShadow_1_110"/>
<feBlend mode="normal" in="SourceGraphic" in2="effect1_dropShadow_1_110" result="shape"/>
<feColorMatrix in="SourceAlpha" type="matrix" values="0 0 0 0 0 0 0 0 0 0 0 0 0 0 0 0 0 0 127 0" result="hardAlpha"/>
<feOffset dy="2.2"/>
<feGaussianBlur stdDeviation="2.2"/>
<feComposite in2="hardAlpha" operator="arithmetic" k2="-1" k3="1"/>
<feColorMatrix type="matrix" values="0 0 0 0 1 0 0 0 0 1 0 0 0 0 1 0 0 0 0.25 0"/>
<feBlend mode="normal" in2="shape" result="effect2_innerShadow_1_110"/>
</filter>
<filter id="filter10_di_1_110" x="953.305" y="10" width="276.695" height="276.695" filterUnits="userSpaceOnUse" color-interpolation-filters="sRGB">
<feFlood flood-opacity="0" result="BackgroundImageFix"/>
<feColorMatrix in="SourceAlpha" type="matrix" values="0 0 0 0 0 0 0 0 0 0 0 0 0 0 0 0 0 0 127 0" result="hardAlpha"/>
<feOffset dy="4"/>
<feGaussianBlur stdDeviation="4"/>
<feComposite in2="hardAlpha" operator="out"/>
<feColorMatrix type="matrix" values="0 0 0 0 0.242029 0 0 0 0 0 0 0 0 0 0 0 0 0 0.25 0"/>
<feBlend mode="normal" in2="BackgroundImageFix" result="effect1_dropShadow_1_110"/>
<feBlend mode="normal" in="SourceGraphic" in2="effect1_dropShadow_1_110" result="shape"/>
<feColorMatrix in="SourceAlpha" type="matrix" values="0 0 0 0 0 0 0 0 0 0 0 0 0 0 0 0 0 0 127 0" result="hardAlpha"/>
<feOffset dy="2"/>
<feGaussianBlur stdDeviation="2"/>
<feComposite in2="hardAlpha" operator="arithmetic" k2="-1" k3="1"/>
<feColorMatrix type="matrix" values="0 0 0 0 0.224172 0 0 0 0 0 0 0 0 0 0 0 0 0 0.25 0"/>
<feBlend mode="normal" in2="shape" result="effect2_innerShadow_1_110"/>
</filter>
<filter id="filter11_i_1_110" x="1054.92" y="29.6947" width="71.7605" height="74.6106" filterUnits="userSpaceOnUse" color-interpolation-filters="sRGB">
<feFlood flood-opacity="0" result="BackgroundImageFix"/>
<feBlend mode="normal" in="SourceGraphic" in2="BackgroundImageFix" result="shape"/>
<feColorMatrix in="SourceAlpha" type="matrix" values="0 0 0 0 0 0 0 0 0 0 0 0 0 0 0 0 0 0 127 0" result="hardAlpha"/>
<feOffset dy="2"/>
<feGaussianBlur stdDeviation="2"/>
<feComposite in2="hardAlpha" operator="arithmetic" k2="-1" k3="1"/>
<feColorMatrix type="matrix" values="0 0 0 0 0.164648 0 0 0 0 0.0247999 0 0 0 0 0.0247999 0 0 0 0.23 0"/>
<feBlend mode="normal" in2="shape" result="effect1_innerShadow_1_110"/>
</filter>
</defs>
</svg>
