<svg width="365" height="969" viewBox="0 0 365 969" fill="none" xmlns="http://www.w3.org/2000/svg">
<g filter="url(#filter0_f_1_22)">
<path d="M28.3934 114.607C34.2513 108.749 43.7487 108.749 49.6066 114.607L148.393 213.393C154.251 219.251 154.251 228.749 148.393 234.607L49.6066 333.393C43.7487 339.251 34.2513 339.251 28.3934 333.393L-70.3934 234.607C-76.2513 228.749 -76.2513 219.251 -70.3934 213.393L28.3934 114.607Z" fill="url(#paint0_linear_1_22)" fill-opacity="0.8"/>
</g>
<g filter="url(#filter1_f_1_22)">
<path d="M146.393 275.607C152.251 269.749 161.749 269.749 167.607 275.607L225.393 333.393C231.251 339.251 231.251 348.749 225.393 354.607L167.607 412.393C161.749 418.251 152.251 418.251 146.393 412.393L88.6066 354.607C82.7487 348.749 82.7487 339.251 88.6066 333.393L146.393 275.607Z" fill="url(#paint1_linear_1_22)" fill-opacity="0.5"/>
</g>
<g filter="url(#filter2_f_1_22)">
<path d="M202.393 134.607C208.251 128.749 217.749 128.749 223.607 134.607L252.393 163.393C258.251 169.251 258.251 178.749 252.393 184.607L223.607 213.393C217.749 219.251 208.251 219.251 202.393 213.393L173.607 184.607C167.749 178.749 167.749 169.251 173.607 163.393L202.393 134.607Z" fill="url(#paint2_linear_1_22)" fill-opacity="0.4"/>
</g>
<g filter="url(#filter3_f_1_22)">
<path d="M243.393 255.607C249.251 249.749 258.749 249.749 264.607 255.607L278.393 269.393C284.251 275.251 284.251 284.749 278.393 290.607L264.607 304.393C258.749 310.251 249.251 310.251 243.393 304.393L229.607 290.607C223.749 284.749 223.749 275.251 229.607 269.393L243.393 255.607Z" fill="url(#paint3_linear_1_22)" fill-opacity="0.3"/>
</g>
<g filter="url(#filter4_f_1_22)">
<path d="M229.393 406.607C235.251 400.749 244.749 400.749 250.607 406.607L284.393 440.393C290.251 446.251 290.251 455.749 284.393 461.607L250.607 495.393C244.749 501.251 235.251 501.251 229.393 495.393L195.607 461.607C189.749 455.749 189.749 446.251 195.607 440.393L229.393 406.607Z" fill="url(#paint4_linear_1_22)" fill-opacity="0.4"/>
</g>
<g filter="url(#filter5_f_1_22)">
<path d="M290.393 345.607C296.251 339.749 305.749 339.749 311.607 345.607L325.393 359.393C331.251 365.251 331.251 374.749 325.393 380.607L311.607 394.393C305.749 400.251 296.251 400.251 290.393 394.393L276.607 380.607C270.749 374.749 270.749 365.251 276.607 359.393L290.393 345.607Z" fill="url(#paint5_linear_1_22)" fill-opacity="0.3"/>
</g>
<g filter="url(#filter6_f_1_22)">
<path d="M267.393 542.607C273.251 536.749 282.749 536.749 288.607 542.607L309.393 563.393C315.251 569.251 315.251 578.749 309.393 584.607L288.607 605.393C282.749 611.251 273.251 611.251 267.393 605.393L246.607 584.607C240.749 578.749 240.749 569.251 246.607 563.393L267.393 542.607Z" fill="url(#paint6_linear_1_22)" fill-opacity="0.3"/>
</g>
<g filter="url(#filter7_f_1_22)">
<path d="M5.8934 380.607C11.7513 374.749 21.2487 374.749 27.1066 380.607L83.3934 436.893C89.2513 442.751 89.2513 452.249 83.3934 458.107L27.1066 514.393C21.2487 520.251 11.7513 520.251 5.8934 514.393L-50.3934 458.107C-56.2513 452.249 -56.2513 442.751 -50.3934 436.893L5.8934 380.607Z" fill="url(#paint7_linear_1_22)" fill-opacity="0.8"/>
</g>
<g filter="url(#filter8_f_1_22)">
<path d="M129.393 458.607C135.251 452.749 144.749 452.749 150.607 458.607L214.393 522.393C220.251 528.251 220.251 537.749 214.393 543.607L150.607 607.393C144.749 613.251 135.251 613.251 129.393 607.393L65.6066 543.607C59.7487 537.749 59.7487 528.251 65.6066 522.393L129.393 458.607Z" fill="url(#paint8_linear_1_22)" fill-opacity="0.5"/>
</g>
<g filter="url(#filter9_f_1_22)">
<path d="M-0.606598 543.607C5.25127 537.749 14.7487 537.749 20.6066 543.607L112.393 635.393C118.251 641.251 118.251 650.749 112.393 656.607L20.6066 748.393C14.7487 754.251 5.25126 754.251 -0.606606 748.393L-92.3934 656.607C-98.2513 650.749 -98.2513 641.251 -92.3934 635.393L-0.606598 543.607Z" fill="url(#paint9_linear_1_22)" fill-opacity="0.8"/>
</g>
<g filter="url(#filter10_f_1_22)">
<path d="M202.393 618.607C208.251 612.749 217.749 612.749 223.607 618.607L269.393 664.393C275.251 670.251 275.251 679.749 269.393 685.607L223.607 731.393C217.749 737.251 208.251 737.251 202.393 731.393L156.607 685.607C150.749 679.749 150.749 670.251 156.607 664.393L202.393 618.607Z" fill="url(#paint10_linear_1_22)" fill-opacity="0.4"/>
</g>
<g filter="url(#filter11_f_1_22)">
<path d="M296.393 725.607C302.251 719.749 311.749 719.749 317.607 725.607L340.393 748.393C346.251 754.251 346.251 763.749 340.393 769.607L317.607 792.393C311.749 798.251 302.251 798.251 296.393 792.393L273.607 769.607C267.749 763.749 267.749 754.251 273.607 748.393L296.393 725.607Z" fill="url(#paint11_linear_1_22)" fill-opacity="0.3"/>
</g>
<g filter="url(#filter12_f_1_22)">
<path d="M223.393 877.607C229.251 871.749 238.749 871.749 244.607 877.607L267.393 900.393C273.251 906.251 273.251 915.749 267.393 921.607L244.607 944.393C238.749 950.251 229.251 950.251 223.393 944.393L200.607 921.607C194.749 915.749 194.749 906.251 200.607 900.393L223.393 877.607Z" fill="url(#paint12_linear_1_22)" fill-opacity="0.4"/>
</g>
<g filter="url(#filter13_f_1_22)">
<path d="M135.393 21.6066C141.251 15.7487 150.749 15.7487 156.607 21.6066L202.393 67.3934C208.251 73.2513 208.251 82.7487 202.393 88.6066L156.607 134.393C150.749 140.251 141.251 140.251 135.393 134.393L89.6066 88.6066C83.7487 82.7487 83.7487 73.2513 89.6066 67.3934L135.393 21.6066Z" fill="url(#paint13_linear_1_22)" fill-opacity="0.5"/>
</g>
<g filter="url(#filter14_f_1_22)">
<path d="M-4.60661 -11.3934C1.25125 -17.2513 10.7487 -17.2513 16.6066 -11.3934L62.3934 34.3934C68.2513 40.2513 68.2513 49.7487 62.3934 55.6066L16.6066 101.393C10.7487 107.251 1.25126 107.251 -4.6066 101.393L-50.3934 55.6066C-56.2513 49.7487 -56.2513 40.2513 -50.3934 34.3934L-4.60661 -11.3934Z" fill="url(#paint14_linear_1_22)" fill-opacity="0.8"/>
</g>
<g filter="url(#filter15_f_1_22)">
<path d="M100.393 709.607C106.251 703.749 115.749 703.749 121.607 709.607L201.393 789.393C207.251 795.251 207.251 804.749 201.393 810.607L121.607 890.393C115.749 896.251 106.251 896.251 100.393 890.393L20.6066 810.607C14.7487 804.749 14.7487 795.251 20.6066 789.393L100.393 709.607Z" fill="url(#paint15_linear_1_22)" fill-opacity="0.5"/>
</g>
<defs>
<filter id="filter0_f_1_22" x="-94.7868" y="90.2131" width="267.574" height="267.574" filterUnits="userSpaceOnUse" color-interpolation-filters="sRGB">
<feFlood flood-opacity="0" result="BackgroundImageFix"/>
<feBlend mode="normal" in="SourceGraphic" in2="BackgroundImageFix" result="shape"/>
<feGaussianBlur stdDeviation="10" result="effect1_foregroundBlur_1_22"/>
</filter>
<filter id="filter1_f_1_22" x="64.2132" y="251.213" width="185.574" height="185.574" filterUnits="userSpaceOnUse" color-interpolation-filters="sRGB">
<feFlood flood-opacity="0" result="BackgroundImageFix"/>
<feBlend mode="normal" in="SourceGraphic" in2="BackgroundImageFix" result="shape"/>
<feGaussianBlur stdDeviation="10" result="effect1_foregroundBlur_1_22"/>
</filter>
<filter id="filter2_f_1_22" x="149.213" y="110.213" width="127.574" height="127.574" filterUnits="userSpaceOnUse" color-interpolation-filters="sRGB">
<feFlood flood-opacity="0" result="BackgroundImageFix"/>
<feBlend mode="normal" in="SourceGraphic" in2="BackgroundImageFix" result="shape"/>
<feGaussianBlur stdDeviation="10" result="effect1_foregroundBlur_1_22"/>
</filter>
<filter id="filter3_f_1_22" x="205.213" y="231.213" width="97.5736" height="97.5737" filterUnits="userSpaceOnUse" color-interpolation-filters="sRGB">
<feFlood flood-opacity="0" result="BackgroundImageFix"/>
<feBlend mode="normal" in="SourceGraphic" in2="BackgroundImageFix" result="shape"/>
<feGaussianBlur stdDeviation="10" result="effect1_foregroundBlur_1_22"/>
</filter>
<filter id="filter4_f_1_22" x="171.213" y="382.213" width="137.574" height="137.574" filterUnits="userSpaceOnUse" color-interpolation-filters="sRGB">
<feFlood flood-opacity="0" result="BackgroundImageFix"/>
<feBlend mode="normal" in="SourceGraphic" in2="BackgroundImageFix" result="shape"/>
<feGaussianBlur stdDeviation="10" result="effect1_foregroundBlur_1_22"/>
</filter>
<filter id="filter5_f_1_22" x="252.213" y="321.213" width="97.5736" height="97.5737" filterUnits="userSpaceOnUse" color-interpolation-filters="sRGB">
<feFlood flood-opacity="0" result="BackgroundImageFix"/>
<feBlend mode="normal" in="SourceGraphic" in2="BackgroundImageFix" result="shape"/>
<feGaussianBlur stdDeviation="10" result="effect1_foregroundBlur_1_22"/>
</filter>
<filter id="filter6_f_1_22" x="222.213" y="518.213" width="111.574" height="111.574" filterUnits="userSpaceOnUse" color-interpolation-filters="sRGB">
<feFlood flood-opacity="0" result="BackgroundImageFix"/>
<feBlend mode="normal" in="SourceGraphic" in2="BackgroundImageFix" result="shape"/>
<feGaussianBlur stdDeviation="10" result="effect1_foregroundBlur_1_22"/>
</filter>
<filter id="filter7_f_1_22" x="-74.7868" y="356.213" width="182.574" height="182.574" filterUnits="userSpaceOnUse" color-interpolation-filters="sRGB">
<feFlood flood-opacity="0" result="BackgroundImageFix"/>
<feBlend mode="normal" in="SourceGraphic" in2="BackgroundImageFix" result="shape"/>
<feGaussianBlur stdDeviation="10" result="effect1_foregroundBlur_1_22"/>
</filter>
<filter id="filter8_f_1_22" x="41.2132" y="434.213" width="197.574" height="197.574" filterUnits="userSpaceOnUse" color-interpolation-filters="sRGB">
<feFlood flood-opacity="0" result="BackgroundImageFix"/>
<feBlend mode="normal" in="SourceGraphic" in2="BackgroundImageFix" result="shape"/>
<feGaussianBlur stdDeviation="10" result="effect1_foregroundBlur_1_22"/>
</filter>
<filter id="filter9_f_1_22" x="-116.787" y="519.213" width="253.574" height="253.574" filterUnits="userSpaceOnUse" color-interpolation-filters="sRGB">
<feFlood flood-opacity="0" result="BackgroundImageFix"/>
<feBlend mode="normal" in="SourceGraphic" in2="BackgroundImageFix" result="shape"/>
<feGaussianBlur stdDeviation="10" result="effect1_foregroundBlur_1_22"/>
</filter>
<filter id="filter10_f_1_22" x="132.213" y="594.213" width="161.574" height="161.574" filterUnits="userSpaceOnUse" color-interpolation-filters="sRGB">
<feFlood flood-opacity="0" result="BackgroundImageFix"/>
<feBlend mode="normal" in="SourceGraphic" in2="BackgroundImageFix" result="shape"/>
<feGaussianBlur stdDeviation="10" result="effect1_foregroundBlur_1_22"/>
</filter>
<filter id="filter11_f_1_22" x="249.213" y="701.213" width="115.574" height="115.574" filterUnits="userSpaceOnUse" color-interpolation-filters="sRGB">
<feFlood flood-opacity="0" result="BackgroundImageFix"/>
<feBlend mode="normal" in="SourceGraphic" in2="BackgroundImageFix" result="shape"/>
<feGaussianBlur stdDeviation="10" result="effect1_foregroundBlur_1_22"/>
</filter>
<filter id="filter12_f_1_22" x="176.213" y="853.213" width="115.574" height="115.574" filterUnits="userSpaceOnUse" color-interpolation-filters="sRGB">
<feFlood flood-opacity="0" result="BackgroundImageFix"/>
<feBlend mode="normal" in="SourceGraphic" in2="BackgroundImageFix" result="shape"/>
<feGaussianBlur stdDeviation="10" result="effect1_foregroundBlur_1_22"/>
</filter>
<filter id="filter13_f_1_22" x="65.2132" y="-2.78687" width="161.574" height="161.574" filterUnits="userSpaceOnUse" color-interpolation-filters="sRGB">
<feFlood flood-opacity="0" result="BackgroundImageFix"/>
<feBlend mode="normal" in="SourceGraphic" in2="BackgroundImageFix" result="shape"/>
<feGaussianBlur stdDeviation="10" result="effect1_foregroundBlur_1_22"/>
</filter>
<filter id="filter14_f_1_22" x="-74.7868" y="-35.7869" width="161.574" height="161.574" filterUnits="userSpaceOnUse" color-interpolation-filters="sRGB">
<feFlood flood-opacity="0" result="BackgroundImageFix"/>
<feBlend mode="normal" in="SourceGraphic" in2="BackgroundImageFix" result="shape"/>
<feGaussianBlur stdDeviation="10" result="effect1_foregroundBlur_1_22"/>
</filter>
<filter id="filter15_f_1_22" x="-3.7868" y="685.213" width="229.574" height="229.574" filterUnits="userSpaceOnUse" color-interpolation-filters="sRGB">
<feFlood flood-opacity="0" result="BackgroundImageFix"/>
<feBlend mode="normal" in="SourceGraphic" in2="BackgroundImageFix" result="shape"/>
<feGaussianBlur stdDeviation="10" result="effect1_foregroundBlur_1_22"/>
</filter>
<linearGradient id="paint0_linear_1_22" x1="159" y1="224" x2="39" y2="344" gradientUnits="userSpaceOnUse">
<stop stop-color="white"/>
<stop offset="1" stop-color="#39BFA7"/>
</linearGradient>
<linearGradient id="paint1_linear_1_22" x1="236" y1="344" x2="157" y2="423" gradientUnits="userSpaceOnUse">
<stop stop-color="white"/>
<stop offset="1" stop-color="#39BFA7"/>
</linearGradient>
<linearGradient id="paint2_linear_1_22" x1="263" y1="174" x2="213" y2="224" gradientUnits="userSpaceOnUse">
<stop stop-color="white"/>
<stop offset="1" stop-color="#39BFA7"/>
</linearGradient>
<linearGradient id="paint3_linear_1_22" x1="289" y1="280" x2="254" y2="315" gradientUnits="userSpaceOnUse">
<stop stop-color="white"/>
<stop offset="1" stop-color="#39BFA7"/>
</linearGradient>
<linearGradient id="paint4_linear_1_22" x1="295" y1="451" x2="240" y2="506" gradientUnits="userSpaceOnUse">
<stop stop-color="white"/>
<stop offset="1" stop-color="#39BFA7"/>
</linearGradient>
<linearGradient id="paint5_linear_1_22" x1="336" y1="370" x2="301" y2="405" gradientUnits="userSpaceOnUse">
<stop stop-color="white"/>
<stop offset="1" stop-color="#39BFA7"/>
</linearGradient>
<linearGradient id="paint6_linear_1_22" x1="320" y1="574" x2="278" y2="616" gradientUnits="userSpaceOnUse">
<stop stop-color="white"/>
<stop offset="1" stop-color="#39BFA7"/>
</linearGradient>
<linearGradient id="paint7_linear_1_22" x1="94" y1="447.5" x2="16.5" y2="525" gradientUnits="userSpaceOnUse">
<stop stop-color="white"/>
<stop offset="1" stop-color="#39BFA7"/>
</linearGradient>
<linearGradient id="paint8_linear_1_22" x1="225" y1="533" x2="140" y2="618" gradientUnits="userSpaceOnUse">
<stop stop-color="white"/>
<stop offset="1" stop-color="#39BFA7"/>
</linearGradient>
<linearGradient id="paint9_linear_1_22" x1="123" y1="646" x2="10" y2="759" gradientUnits="userSpaceOnUse">
<stop stop-color="white"/>
<stop offset="1" stop-color="#39BFA7"/>
</linearGradient>
<linearGradient id="paint10_linear_1_22" x1="280" y1="675" x2="213" y2="742" gradientUnits="userSpaceOnUse">
<stop stop-color="white"/>
<stop offset="1" stop-color="#39BFA7"/>
</linearGradient>
<linearGradient id="paint11_linear_1_22" x1="351" y1="759" x2="307" y2="803" gradientUnits="userSpaceOnUse">
<stop stop-color="white"/>
<stop offset="1" stop-color="#39BFA7"/>
</linearGradient>
<linearGradient id="paint12_linear_1_22" x1="278" y1="911" x2="234" y2="955" gradientUnits="userSpaceOnUse">
<stop stop-color="white"/>
<stop offset="1" stop-color="#39BFA7"/>
</linearGradient>
<linearGradient id="paint13_linear_1_22" x1="213" y1="78" x2="146" y2="145" gradientUnits="userSpaceOnUse">
<stop stop-color="white"/>
<stop offset="1" stop-color="#39BFA7"/>
</linearGradient>
<linearGradient id="paint14_linear_1_22" x1="73" y1="45" x2="6" y2="112" gradientUnits="userSpaceOnUse">
<stop stop-color="white"/>
<stop offset="1" stop-color="#39BFA7"/>
</linearGradient>
<linearGradient id="paint15_linear_1_22" x1="212" y1="800" x2="111" y2="901" gradientUnits="userSpaceOnUse">
<stop stop-color="white"/>
<stop offset="1" stop-color="#39BFA7"/>
</linearGradient>
</defs>
</svg>
